<svg width="253" height="160" viewBox="0 0 253 160" fill="none" xmlns="http://www.w3.org/2000/svg">
<g clip-path="url(#clip0_82_2846)">
<rect width="252.444" height="160" rx="10.6667" fill="#1D7AFC"/>
<path opacity="0.25" d="M301.528 102.934C288.207 106.808 274.413 97.9833 265.277 87.4733C256.14 76.9633 249.243 64.2161 238.067 55.9432C214.324 38.3884 176.693 49.5173 162.379 75.4496C148.066 101.391 155.775 136.168 176.617 157.14C197.45 178.113 228.817 186.186 258.106 183.073C283.842 180.34 309.077 169.25 326.679 150.143C344.28 131.037 353.482 103.648 348.465 78.0676C345.527 63.0832 329.674 43.5578 322.295 62.7786C316.579 77.7154 322.257 96.9076 301.528 102.934Z" fill="#4A148C"/>
<path opacity="0.25" d="M4.19003 28.772C-6.52246 18.8706 -13.0237 4.7682 -15.3862 -12.2097C-16.386 -19.376 -16.7658 -26.7726 -19.5417 -33.4166C-22.3175 -40.0662 -28.2379 -45.9577 -35.2362 -45.9296C-43.8263 -45.8903 -50.132 -37.2132 -52.4275 -28.6484C-57.2532 -10.6371 -56.6332 10.3114 -43.3124 24.6104C-32.9406 35.7474 -17.2852 41.1783 -8.09191 53.3093C0.810955 65.0529 2.43067 81.5703 12.7801 92.0502C18.2313 97.5709 25.5982 100.806 33.0713 102.833C43.6553 105.698 55.1553 106.304 65.4154 102.44C75.6811 98.5762 84.4276 89.6801 86.226 78.8071C90.9399 50.3047 54.6973 46.5418 35.6405 43.4248C22.7498 41.3131 12.2719 36.236 4.19003 28.772Z" fill="white"/>
<path d="M37.6982 35.5685V15.5353H42.4195V35.5685H37.6982ZM40.0719 12.6921C39.3241 12.6921 38.6807 12.4443 38.1416 11.9487C37.6026 11.4443 37.333 10.84 37.333 10.1358C37.333 9.42278 37.6026 8.81848 38.1416 8.32286C38.6807 7.81856 39.3241 7.56641 40.0719 7.56641C40.8284 7.56641 41.4718 7.81856 42.0022 8.32286C42.5413 8.81848 42.8108 9.42278 42.8108 10.1358C42.8108 10.84 42.5413 11.4443 42.0022 11.9487C41.4718 12.4443 40.8284 12.6921 40.0719 12.6921Z" fill="white" fill-opacity="0.25"/>
<path d="M51.9959 8.8576V35.5685H47.2746V8.8576H51.9959Z" fill="white" fill-opacity="0.25"/>
<path d="M56.851 35.5685V15.5353H61.3636V18.9394H61.5984C62.0158 17.7917 62.707 16.8961 63.6721 16.2526C64.6373 15.6005 65.7894 15.2745 67.1284 15.2745C68.4848 15.2745 69.6282 15.6049 70.5585 16.2657C71.4976 16.9178 72.1584 17.809 72.541 18.9394H72.7497C73.1931 17.8264 73.9409 16.9395 74.993 16.2787C76.0537 15.6092 77.3102 15.2745 78.7622 15.2745C80.6055 15.2745 82.1098 15.857 83.2749 17.0222C84.44 18.1873 85.0226 19.8871 85.0226 22.1217V35.5685H80.2882V22.8521C80.2882 21.6087 79.9578 20.7001 79.297 20.1262C78.6361 19.5437 77.8275 19.2524 76.8711 19.2524C75.732 19.2524 74.8408 19.6089 74.1974 20.3219C73.5626 21.0262 73.2453 21.9435 73.2453 23.0738V35.5685H68.6152V22.6565C68.6152 21.6218 68.3022 20.7958 67.6762 20.1784C67.0588 19.5611 66.2502 19.2524 65.2503 19.2524C64.5721 19.2524 63.9547 19.4263 63.3983 19.7741C62.8418 20.1132 62.3983 20.5958 62.0679 21.2218C61.7375 21.8391 61.5723 22.5608 61.5723 23.3868V35.5685H56.851Z" fill="white" fill-opacity="0.25"/>
<path d="M94.5337 8.8576V35.5685H89.8124V8.8576H94.5337Z" fill="white" fill-opacity="0.25"/>
<path d="M105.154 35.9728C103.884 35.9728 102.741 35.7467 101.723 35.2946C100.715 34.8337 99.9148 34.1555 99.3236 33.2599C98.741 32.3644 98.4497 31.2601 98.4497 29.9472C98.4497 28.8168 98.6584 27.8821 99.0758 27.1431C99.4931 26.404 100.063 25.8127 100.784 25.3693C101.506 24.9258 102.319 24.5911 103.223 24.365C104.136 24.1303 105.08 23.9607 106.053 23.8564C107.227 23.7346 108.179 23.626 108.91 23.5303C109.64 23.426 110.17 23.2695 110.501 23.0608C110.84 22.8434 111.01 22.5087 111.01 22.0565V21.9783C111.01 20.9957 110.718 20.2349 110.136 19.6958C109.553 19.1568 108.714 18.8872 107.619 18.8872C106.462 18.8872 105.545 19.1394 104.867 19.6437C104.197 20.148 103.745 20.7436 103.51 21.4305L99.1018 20.8044C99.4496 19.5872 100.024 18.5698 100.823 17.7525C101.623 16.9265 102.602 16.3092 103.758 15.9005C104.914 15.4831 106.193 15.2745 107.592 15.2745C108.558 15.2745 109.518 15.3875 110.475 15.6136C111.431 15.8396 112.305 16.2135 113.096 16.7352C113.888 17.2482 114.522 17.9482 115.001 18.835C115.487 19.7219 115.731 20.8305 115.731 22.1609V35.5685H111.192V32.8165H111.036C110.749 33.373 110.344 33.8947 109.823 34.3816C109.31 34.8598 108.662 35.2467 107.879 35.5424C107.106 35.8293 106.197 35.9728 105.154 35.9728ZM106.38 32.5035C107.327 32.5035 108.149 32.3165 108.845 31.9427C109.54 31.5601 110.075 31.0558 110.449 30.4297C110.831 29.8037 111.023 29.1212 111.023 28.3821V26.0214C110.875 26.1431 110.623 26.2562 110.266 26.3605C109.918 26.4649 109.527 26.5562 109.092 26.6344C108.658 26.7127 108.227 26.7822 107.801 26.8431C107.375 26.9039 107.006 26.9561 106.693 26.9996C105.988 27.0952 105.358 27.2517 104.801 27.4691C104.245 27.6865 103.806 27.9908 103.484 28.3821C103.162 28.7647 103.002 29.2603 103.002 29.8689C103.002 30.7384 103.319 31.3949 103.954 31.8383C104.588 32.2818 105.397 32.5035 106.38 32.5035Z" fill="white" fill-opacity="0.25"/>
<path d="M120.478 35.5685V15.5353H125.056V18.8742H125.265C125.63 17.7177 126.256 16.8265 127.143 16.2005C128.039 15.5657 129.06 15.2484 130.208 15.2484C130.469 15.2484 130.76 15.2614 131.082 15.2875C131.412 15.3049 131.686 15.3353 131.903 15.3788V19.7219C131.704 19.6524 131.386 19.5915 130.951 19.5393C130.525 19.4785 130.112 19.448 129.712 19.448C128.852 19.448 128.078 19.635 127.391 20.0089C126.713 20.374 126.178 20.8827 125.787 21.5348C125.395 22.1869 125.2 22.9391 125.2 23.7912V35.5685H120.478Z" fill="white" fill-opacity="0.25"/>
<path d="M135.653 35.8554C134.862 35.8554 134.184 35.5771 133.619 35.0207C133.053 34.4642 132.775 33.786 132.784 32.9861C132.775 32.2035 133.053 31.534 133.619 30.9775C134.184 30.421 134.862 30.1428 135.653 30.1428C136.418 30.1428 137.084 30.421 137.649 30.9775C138.223 31.534 138.514 32.2035 138.523 32.9861C138.514 33.5164 138.375 33.999 138.105 34.4338C137.844 34.8685 137.497 35.2163 137.062 35.4772C136.636 35.7293 136.166 35.8554 135.653 35.8554Z" fill="white" fill-opacity="0.25"/>
<path d="M152.136 35.9597C150.136 35.9597 148.418 35.5206 146.984 34.6424C145.558 33.7643 144.458 32.5513 143.684 31.0036C142.919 29.4472 142.536 27.6561 142.536 25.6301C142.536 23.5955 142.928 21.8 143.71 20.2436C144.493 18.6785 145.597 17.4612 147.023 16.5918C148.458 15.7136 150.153 15.2745 152.109 15.2745C153.735 15.2745 155.174 15.5744 156.426 16.1744C157.687 16.7657 158.692 17.6047 159.439 18.6916C160.187 19.7698 160.613 21.0305 160.717 22.4739H156.205C156.022 21.5087 155.587 20.7045 154.901 20.061C154.222 19.4089 153.314 19.0829 152.175 19.0829C151.21 19.0829 150.362 19.3437 149.631 19.8654C148.901 20.3784 148.331 21.1175 147.923 22.0826C147.523 23.0477 147.323 24.2042 147.323 25.5519C147.323 26.917 147.523 28.0908 147.923 29.0733C148.323 30.0472 148.884 30.7993 149.605 31.3297C150.336 31.8514 151.192 32.1122 152.175 32.1122C152.87 32.1122 153.492 31.9818 154.04 31.7209C154.596 31.4514 155.061 31.0645 155.435 30.5602C155.809 30.0559 156.066 29.4429 156.205 28.7212H160.717C160.604 30.1385 160.187 31.3949 159.465 32.4904C158.744 33.5773 157.761 34.4294 156.518 35.0468C155.274 35.6554 153.814 35.9597 152.136 35.9597Z" fill="white" fill-opacity="0.25"/>
<path d="M173.333 35.9597C171.376 35.9597 169.681 35.5293 168.246 34.6685C166.811 33.8077 165.699 32.6035 164.907 31.0558C164.125 29.5081 163.733 27.6995 163.733 25.6301C163.733 23.5607 164.125 21.7478 164.907 20.1915C165.699 18.6351 166.811 17.4265 168.246 16.5657C169.681 15.7049 171.376 15.2745 173.333 15.2745C175.289 15.2745 176.985 15.7049 178.419 16.5657C179.854 17.4265 180.963 18.6351 181.745 20.1915C182.536 21.7478 182.932 23.5607 182.932 25.6301C182.932 27.6995 182.536 29.5081 181.745 31.0558C180.963 32.6035 179.854 33.8077 178.419 34.6685C176.985 35.5293 175.289 35.9597 173.333 35.9597ZM173.359 32.1774C174.42 32.1774 175.306 31.8861 176.019 31.3036C176.732 30.7123 177.263 29.9211 177.611 28.9299C177.967 27.9386 178.145 26.8344 178.145 25.6171C178.145 24.3911 177.967 23.2825 177.611 22.2913C177.263 21.2914 176.732 20.4958 176.019 19.9045C175.306 19.3133 174.42 19.0176 173.359 19.0176C172.272 19.0176 171.368 19.3133 170.646 19.9045C169.933 20.4958 169.398 21.2914 169.042 22.2913C168.694 23.2825 168.52 24.3911 168.52 25.6171C168.52 26.8344 168.694 27.9386 169.042 28.9299C169.398 29.9211 169.933 30.7123 170.646 31.3036C171.368 31.8861 172.272 32.1774 173.359 32.1774Z" fill="white" fill-opacity="0.25"/>
<path d="M186.939 35.5685V15.5353H191.452V18.9394H191.687C192.104 17.7917 192.795 16.8961 193.76 16.2526C194.725 15.6005 195.878 15.2745 197.217 15.2745C198.573 15.2745 199.716 15.6049 200.647 16.2657C201.586 16.9178 202.247 17.809 202.629 18.9394H202.838C203.281 17.8264 204.029 16.9395 205.081 16.2787C206.142 15.6092 207.398 15.2745 208.85 15.2745C210.694 15.2745 212.198 15.857 213.363 17.0222C214.528 18.1873 215.111 19.8871 215.111 22.1217V35.5685H210.376V22.8521C210.376 21.6087 210.046 20.7001 209.385 20.1262C208.724 19.5437 207.916 19.2524 206.959 19.2524C205.82 19.2524 204.929 19.6089 204.286 20.3219C203.651 21.0262 203.333 21.9435 203.333 23.0738V35.5685H198.703V22.6565C198.703 21.6218 198.39 20.7958 197.764 20.1784C197.147 19.5611 196.338 19.2524 195.339 19.2524C194.66 19.2524 194.043 19.4263 193.486 19.7741C192.93 20.1132 192.487 20.5958 192.156 21.2218C191.826 21.8391 191.661 22.5608 191.661 23.3868V35.5685H186.939Z" fill="white" fill-opacity="0.25"/>
<path fill-rule="evenodd" clip-rule="evenodd" d="M189.334 142.222C189.334 146.15 186.15 149.334 182.222 149.334C181.927 149.334 181.636 149.316 181.35 149.281V141.576H178.441V148.246C176.441 146.987 175.111 144.76 175.111 142.222C175.111 138.295 178.295 135.111 182.222 135.111C186.15 135.111 189.334 138.295 189.334 142.222ZM179.863 140.639C180.8 140.639 181.56 139.879 181.56 138.942C181.56 138.004 180.8 137.245 179.863 137.245C178.926 137.245 178.166 138.004 178.166 138.942C178.166 139.879 178.926 140.639 179.863 140.639Z" fill="white"/>
<path d="M193.739 145.723V139.904H194.871V145.723H193.739ZM194.311 139.007C194.114 139.007 193.944 138.941 193.803 138.81C193.664 138.676 193.595 138.517 193.595 138.333C193.595 138.146 193.664 137.987 193.803 137.855C193.944 137.721 194.114 137.654 194.311 137.654C194.508 137.654 194.675 137.721 194.814 137.855C194.956 137.987 195.026 138.146 195.026 138.333C195.026 138.517 194.956 138.676 194.814 138.81C194.675 138.941 194.508 139.007 194.311 139.007ZM197.527 137.965V145.723H196.395V137.965H197.527ZM199.051 145.723V139.904H200.138V140.851H200.21C200.331 140.531 200.53 140.281 200.805 140.101C201.08 139.92 201.41 139.829 201.794 139.829C202.182 139.829 202.508 139.92 202.771 140.101C203.036 140.283 203.232 140.533 203.358 140.851H203.419C203.557 140.541 203.778 140.293 204.081 140.109C204.384 139.922 204.746 139.829 205.165 139.829C205.692 139.829 206.123 139.994 206.456 140.325C206.792 140.656 206.96 141.154 206.96 141.821V145.723H205.828V141.927C205.828 141.533 205.72 141.248 205.506 141.071C205.291 140.894 205.035 140.806 204.737 140.806C204.368 140.806 204.081 140.92 203.877 141.147C203.672 141.372 203.57 141.661 203.57 142.014V145.723H202.441V141.855C202.441 141.54 202.343 141.286 202.146 141.094C201.949 140.902 201.692 140.806 201.377 140.806C201.162 140.806 200.964 140.863 200.782 140.976C200.603 141.088 200.458 141.243 200.347 141.442C200.238 141.642 200.184 141.873 200.184 142.136V145.723H199.051ZM209.611 137.965V145.723H208.478V137.965H209.611ZM212.828 145.851C212.459 145.851 212.126 145.783 211.828 145.647C211.53 145.508 211.294 145.307 211.119 145.045C210.948 144.782 210.862 144.46 210.862 144.079C210.862 143.75 210.925 143.48 211.051 143.268C211.177 143.056 211.348 142.888 211.562 142.764C211.777 142.641 212.017 142.547 212.282 142.484C212.547 142.421 212.817 142.373 213.093 142.34C213.441 142.3 213.724 142.267 213.941 142.242C214.158 142.214 214.316 142.17 214.415 142.109C214.513 142.048 214.562 141.95 214.562 141.814V141.787C214.562 141.456 214.469 141.2 214.282 141.018C214.098 140.836 213.823 140.745 213.456 140.745C213.075 140.745 212.775 140.83 212.555 140.999C212.338 141.166 212.187 141.351 212.104 141.556L211.04 141.314C211.166 140.96 211.35 140.675 211.593 140.458C211.838 140.238 212.119 140.079 212.437 139.98C212.756 139.879 213.09 139.829 213.441 139.829C213.674 139.829 213.92 139.856 214.18 139.912C214.442 139.965 214.687 140.064 214.915 140.208C215.145 140.351 215.333 140.557 215.479 140.825C215.626 141.09 215.699 141.435 215.699 141.859V145.723H214.593V144.927H214.547C214.474 145.074 214.364 145.218 214.218 145.359C214.071 145.5 213.883 145.618 213.653 145.711C213.424 145.805 213.148 145.851 212.828 145.851ZM213.074 144.942C213.387 144.942 213.655 144.88 213.877 144.757C214.102 144.633 214.272 144.471 214.388 144.272C214.507 144.07 214.566 143.854 214.566 143.624V142.874C214.526 142.915 214.448 142.952 214.331 142.988C214.218 143.021 214.088 143.05 213.941 143.075C213.795 143.098 213.652 143.119 213.513 143.139C213.374 143.157 213.258 143.172 213.165 143.185C212.945 143.213 212.744 143.259 212.562 143.325C212.383 143.391 212.239 143.485 212.131 143.609C212.025 143.73 211.972 143.892 211.972 144.094C211.972 144.374 212.075 144.586 212.282 144.73C212.489 144.872 212.753 144.942 213.074 144.942ZM217.207 145.723V139.904H218.302V140.829H218.363C218.469 140.516 218.656 140.269 218.923 140.09C219.193 139.908 219.499 139.817 219.84 139.817C219.911 139.817 219.994 139.82 220.09 139.825C220.188 139.83 220.265 139.836 220.321 139.844V140.927C220.276 140.915 220.195 140.901 220.079 140.886C219.962 140.868 219.846 140.859 219.73 140.859C219.462 140.859 219.224 140.916 219.014 141.029C218.807 141.141 218.643 141.296 218.522 141.495C218.401 141.692 218.34 141.917 218.34 142.17V145.723H217.207ZM221.381 145.795C221.174 145.795 220.996 145.721 220.847 145.575C220.698 145.426 220.623 145.247 220.623 145.037C220.623 144.83 220.698 144.653 220.847 144.507C220.996 144.358 221.174 144.283 221.381 144.283C221.588 144.283 221.766 144.358 221.915 144.507C222.064 144.653 222.138 144.83 222.138 145.037C222.138 145.176 222.103 145.303 222.032 145.42C221.964 145.533 221.873 145.624 221.759 145.692C221.646 145.761 221.52 145.795 221.381 145.795ZM226.106 145.84C225.543 145.84 225.058 145.713 224.651 145.458C224.247 145.2 223.937 144.845 223.72 144.393C223.502 143.941 223.394 143.423 223.394 142.84C223.394 142.249 223.505 141.728 223.727 141.276C223.949 140.821 224.263 140.466 224.667 140.211C225.071 139.956 225.547 139.829 226.095 139.829C226.537 139.829 226.93 139.911 227.276 140.075C227.622 140.237 227.901 140.464 228.114 140.757C228.328 141.05 228.456 141.392 228.496 141.783H227.394C227.333 141.511 227.194 141.276 226.977 141.079C226.763 140.882 226.475 140.783 226.114 140.783C225.798 140.783 225.521 140.867 225.284 141.033C225.049 141.197 224.866 141.432 224.735 141.738C224.603 142.041 224.538 142.399 224.538 142.814C224.538 143.238 224.602 143.604 224.731 143.912C224.86 144.22 225.042 144.459 225.276 144.628C225.514 144.797 225.793 144.882 226.114 144.882C226.328 144.882 226.523 144.843 226.697 144.764C226.874 144.684 227.021 144.569 227.14 144.42C227.261 144.271 227.346 144.091 227.394 143.882H228.496C228.456 144.258 228.333 144.594 228.129 144.889C227.924 145.185 227.65 145.417 227.307 145.586C226.966 145.755 226.566 145.84 226.106 145.84ZM232.158 145.84C231.613 145.84 231.137 145.715 230.73 145.465C230.323 145.215 230.008 144.865 229.783 144.416C229.558 143.966 229.446 143.441 229.446 142.84C229.446 142.237 229.558 141.709 229.783 141.257C230.008 140.805 230.323 140.454 230.73 140.204C231.137 139.954 231.613 139.829 232.158 139.829C232.704 139.829 233.18 139.954 233.586 140.204C233.993 140.454 234.308 140.805 234.533 141.257C234.758 141.709 234.87 142.237 234.87 142.84C234.87 143.441 234.758 143.966 234.533 144.416C234.308 144.865 233.993 145.215 233.586 145.465C233.18 145.715 232.704 145.84 232.158 145.84ZM232.162 144.889C232.515 144.889 232.808 144.796 233.041 144.609C233.273 144.422 233.445 144.173 233.556 143.863C233.669 143.552 233.726 143.21 233.726 142.836C233.726 142.465 233.669 142.124 233.556 141.814C233.445 141.5 233.273 141.249 233.041 141.06C232.808 140.87 232.515 140.776 232.162 140.776C231.806 140.776 231.51 140.87 231.276 141.06C231.043 141.249 230.87 141.5 230.757 141.814C230.645 142.124 230.59 142.465 230.59 142.836C230.59 143.21 230.645 143.552 230.757 143.863C230.87 144.173 231.043 144.422 231.276 144.609C231.51 144.796 231.806 144.889 232.162 144.889ZM236.134 145.723V139.904H237.222V140.851H237.294C237.415 140.531 237.613 140.281 237.888 140.101C238.163 139.92 238.493 139.829 238.877 139.829C239.266 139.829 239.591 139.92 239.854 140.101C240.119 140.283 240.315 140.533 240.441 140.851H240.502C240.641 140.541 240.862 140.293 241.165 140.109C241.468 139.922 241.829 139.829 242.248 139.829C242.776 139.829 243.206 139.994 243.54 140.325C243.876 140.656 244.044 141.154 244.044 141.821V145.723H242.911V141.927C242.911 141.533 242.804 141.248 242.589 141.071C242.374 140.894 242.118 140.806 241.82 140.806C241.451 140.806 241.165 140.92 240.96 141.147C240.756 141.372 240.653 141.661 240.653 142.014V145.723H239.525V141.855C239.525 141.54 239.426 141.286 239.229 141.094C239.032 140.902 238.776 140.806 238.46 140.806C238.246 140.806 238.047 140.863 237.865 140.976C237.686 141.088 237.541 141.243 237.43 141.442C237.321 141.642 237.267 141.873 237.267 142.136V145.723H236.134Z" fill="white"/>
</g>
<defs>
<clipPath id="clip0_82_2846">
<rect width="252.444" height="160" rx="10.6667" fill="white"/>
</clipPath>
</defs>
</svg>
