<svg width="128" height="32" viewBox="0 0 128 32" fill="none" xmlns="http://www.w3.org/2000/svg">
<path fill-rule="evenodd" clip-rule="evenodd" d="M32 16C32 24.8366 24.8366 32 16 32C15.3352 32 14.6799 31.9595 14.0364 31.8807V14.5455H7.49091V29.5522C2.99065 26.7207 0 21.7096 0 16C0 7.16344 7.16344 0 16 0C24.8366 0 32 7.16344 32 16ZM10.6908 12.4364C12.7995 12.4364 14.509 10.7269 14.509 8.61818C14.509 6.50946 12.7995 4.8 10.6908 4.8C8.58204 4.8 6.87259 6.50946 6.87259 8.61818C6.87259 10.7269 8.58204 12.4364 10.6908 12.4364Z" fill="#1D7AFC"/>
<path d="M38.874 22.5V12.6818H41.1879V22.5H38.874ZM40.0373 11.2884C39.6709 11.2884 39.3555 11.1669 39.0913 10.924C38.8271 10.6768 38.695 10.3807 38.695 10.0355C38.695 9.68608 38.8271 9.38991 39.0913 9.14702C39.3555 8.89986 39.6709 8.77628 40.0373 8.77628C40.4081 8.77628 40.7234 8.89986 40.9834 9.14702C41.2476 9.38991 41.3797 9.68608 41.3797 10.0355C41.3797 10.3807 41.2476 10.6768 40.9834 10.924C40.7234 11.1669 40.4081 11.2884 40.0373 11.2884ZM45.8813 9.40909V22.5H43.5673V9.40909H45.8813ZM48.2607 22.5V12.6818H50.4723V14.3501H50.5874C50.7919 13.7876 51.1307 13.3487 51.6037 13.0334C52.0767 12.7138 52.6414 12.554 53.2976 12.554C53.9624 12.554 54.5228 12.7159 54.9787 13.0398C55.439 13.3594 55.7628 13.7962 55.9503 14.3501H56.0526C56.2699 13.8047 56.6364 13.37 57.152 13.0462C57.6719 12.718 58.2877 12.554 58.9993 12.554C59.9027 12.554 60.64 12.8395 61.211 13.4105C61.782 13.9815 62.0675 14.8146 62.0675 15.9098V22.5H59.7472V16.2678C59.7472 15.6584 59.5853 15.2131 59.2614 14.9318C58.9375 14.6463 58.5412 14.5036 58.0725 14.5036C57.5142 14.5036 57.0775 14.6783 56.7621 15.0277C56.451 15.3729 56.2955 15.8224 56.2955 16.3764V22.5H54.0263V16.1719C54.0263 15.6648 53.8729 15.2599 53.5661 14.9574C53.2635 14.6548 52.8672 14.5036 52.3772 14.5036C52.0448 14.5036 51.7422 14.5888 51.4695 14.7592C51.1968 14.9254 50.9794 15.1619 50.8175 15.4688C50.6556 15.7713 50.5746 16.125 50.5746 16.5298V22.5H48.2607ZM66.7289 9.40909V22.5H64.415V9.40909H66.7289ZM71.9336 22.6982C71.3115 22.6982 70.7511 22.5874 70.2525 22.3658C69.7582 22.1399 69.3662 21.8075 69.0764 21.3686C68.7909 20.9297 68.6481 20.3885 68.6481 19.745C68.6481 19.1911 68.7504 18.733 68.9549 18.3707C69.1595 18.0085 69.4386 17.7188 69.7923 17.5014C70.146 17.2841 70.5444 17.12 70.9876 17.0092C71.4351 16.8942 71.8974 16.8111 72.3747 16.7599C72.95 16.7003 73.4166 16.647 73.7745 16.6001C74.1325 16.549 74.3924 16.4723 74.5544 16.37C74.7206 16.2635 74.8037 16.0994 74.8037 15.8778V15.8395C74.8037 15.358 74.6609 14.9851 74.3754 14.7209C74.0899 14.4567 73.6787 14.3246 73.1417 14.3246C72.575 14.3246 72.1254 14.4482 71.793 14.6953C71.4649 14.9425 71.2433 15.2344 71.1282 15.571L68.9677 15.2642C69.1382 14.6676 69.4194 14.169 69.8115 13.7685C70.2035 13.3636 70.6829 13.0611 71.2497 12.8608C71.8165 12.6562 72.4429 12.554 73.129 12.554C73.602 12.554 74.0728 12.6094 74.5416 12.7202C75.0103 12.831 75.4386 13.0142 75.8264 13.2699C76.2142 13.5213 76.5253 13.8643 76.7596 14.299C76.9983 14.7337 77.1176 15.277 77.1176 15.929V22.5H74.8932V21.1513H74.8165C74.6758 21.424 74.4777 21.6797 74.222 21.9183C73.9706 22.1527 73.6531 22.3423 73.2696 22.4872C72.8903 22.6278 72.445 22.6982 71.9336 22.6982ZM72.5345 20.9979C72.999 20.9979 73.4017 20.9062 73.7426 20.723C74.0835 20.5355 74.3456 20.2884 74.5288 19.9815C74.7163 19.6747 74.8101 19.3402 74.8101 18.978V17.821C74.7376 17.8807 74.614 17.9361 74.4393 17.9872C74.2689 18.0384 74.0771 18.0831 73.864 18.1214C73.651 18.1598 73.44 18.1939 73.2312 18.2237C73.0224 18.2536 72.8413 18.2791 72.6879 18.3004C72.3427 18.3473 72.0338 18.424 71.7611 18.5305C71.4883 18.6371 71.2731 18.7862 71.1155 18.978C70.9578 19.1655 70.879 19.4084 70.879 19.7067C70.879 20.1328 71.0345 20.4545 71.3456 20.6719C71.6566 20.8892 72.053 20.9979 72.5345 20.9979ZM79.4443 22.5V12.6818H81.6879V14.3182H81.7902C81.9691 13.7514 82.276 13.3146 82.7106 13.0078C83.1495 12.6967 83.6503 12.5412 84.2128 12.5412C84.3406 12.5412 84.4834 12.5476 84.641 12.5604C84.803 12.5689 84.9372 12.5838 85.0437 12.6051V14.7337C84.9457 14.6996 84.7902 14.6697 84.5771 14.6442C84.3683 14.6143 84.1659 14.5994 83.9699 14.5994C83.548 14.5994 83.1687 14.6911 82.8321 14.8743C82.4997 15.0533 82.2376 15.3026 82.0459 15.6222C81.8541 15.9418 81.7582 16.3104 81.7582 16.728V22.5H79.4443ZM86.8814 22.6406C86.4937 22.6406 86.1613 22.5043 85.8843 22.2315C85.6073 21.9588 85.4709 21.6264 85.4752 21.2344C85.4709 20.8509 85.6073 20.5227 85.8843 20.25C86.1613 19.9773 86.4937 19.8409 86.8814 19.8409C87.2564 19.8409 87.5824 19.9773 87.8594 20.25C88.1407 20.5227 88.2834 20.8509 88.2877 21.2344C88.2834 21.4943 88.2152 21.7308 88.0831 21.9439C87.9553 22.157 87.7848 22.3274 87.5718 22.4553C87.363 22.5788 87.1329 22.6406 86.8814 22.6406ZM94.9594 22.6918C93.9793 22.6918 93.1377 22.4766 92.4345 22.0462C91.7357 21.6158 91.1966 21.0213 90.8173 20.2628C90.4423 19.5 90.2548 18.6222 90.2548 17.6293C90.2548 16.6321 90.4466 15.7521 90.8301 14.9893C91.2136 14.2223 91.7548 13.6257 92.4537 13.1996C93.1568 12.7692 93.9878 12.554 94.9466 12.554C95.7435 12.554 96.4487 12.701 97.0624 12.995C97.6803 13.2848 98.1725 13.696 98.5389 14.2287C98.9054 14.7571 99.1142 15.375 99.1654 16.0824H96.9537C96.8642 15.6094 96.6511 15.2152 96.3145 14.8999C95.9821 14.5803 95.5368 14.4205 94.9786 14.4205C94.5055 14.4205 94.0901 14.5483 93.7321 14.804C93.3742 15.0554 93.095 15.4176 92.8948 15.8906C92.6987 16.3636 92.6007 16.9304 92.6007 17.5909C92.6007 18.2599 92.6987 18.8352 92.8948 19.3168C93.0908 19.794 93.3656 20.1626 93.7193 20.4226C94.0773 20.6783 94.497 20.8061 94.9786 20.8061C95.3195 20.8061 95.6242 20.7422 95.8926 20.6143C96.1654 20.4822 96.3933 20.2926 96.5766 20.0455C96.7598 19.7983 96.8855 19.4979 96.9537 19.1442H99.1654C99.11 19.8388 98.9054 20.4545 98.5517 20.9915C98.198 21.5241 97.7165 21.9418 97.1071 22.2443C96.4977 22.5426 95.7818 22.6918 94.9594 22.6918ZM105.348 22.6918C104.389 22.6918 103.558 22.4808 102.855 22.0589C102.152 21.6371 101.607 21.0469 101.219 20.2884C100.835 19.5298 100.644 18.6435 100.644 17.6293C100.644 16.6151 100.835 15.7266 101.219 14.9638C101.607 14.201 102.152 13.6087 102.855 13.1868C103.558 12.7649 104.389 12.554 105.348 12.554C106.307 12.554 107.138 12.7649 107.841 13.1868C108.544 13.6087 109.087 14.201 109.471 14.9638C109.859 15.7266 110.053 16.6151 110.053 17.6293C110.053 18.6435 109.859 19.5298 109.471 20.2884C109.087 21.0469 108.544 21.6371 107.841 22.0589C107.138 22.4808 106.307 22.6918 105.348 22.6918ZM105.361 20.8381C105.881 20.8381 106.315 20.6953 106.665 20.4098C107.014 20.12 107.274 19.7322 107.445 19.2464C107.619 18.7607 107.707 18.2195 107.707 17.6229C107.707 17.022 107.619 16.4787 107.445 15.9929C107.274 15.5028 107.014 15.1129 106.665 14.8232C106.315 14.5334 105.881 14.3885 105.361 14.3885C104.828 14.3885 104.385 14.5334 104.031 14.8232C103.682 15.1129 103.42 15.5028 103.245 15.9929C103.075 16.4787 102.989 17.022 102.989 17.6229C102.989 18.2195 103.075 18.7607 103.245 19.2464C103.42 19.7322 103.682 20.12 104.031 20.4098C104.385 20.6953 104.828 20.8381 105.361 20.8381ZM112.017 22.5V12.6818H114.228V14.3501H114.343C114.548 13.7876 114.887 13.3487 115.36 13.0334C115.833 12.7138 116.397 12.554 117.053 12.554C117.718 12.554 118.279 12.7159 118.735 13.0398C119.195 13.3594 119.519 13.7962 119.706 14.3501H119.808C120.026 13.8047 120.392 13.37 120.908 13.0462C121.428 12.718 122.044 12.554 122.755 12.554C123.659 12.554 124.396 12.8395 124.967 13.4105C125.538 13.9815 125.823 14.8146 125.823 15.9098V22.5H123.503V16.2678C123.503 15.6584 123.341 15.2131 123.017 14.9318C122.693 14.6463 122.297 14.5036 121.828 14.5036C121.27 14.5036 120.833 14.6783 120.518 15.0277C120.207 15.3729 120.051 15.8224 120.051 16.3764V22.5H117.782V16.1719C117.782 15.6648 117.629 15.2599 117.322 14.9574C117.019 14.6548 116.623 14.5036 116.133 14.5036C115.801 14.5036 115.498 14.5888 115.225 14.7592C114.953 14.9254 114.735 15.1619 114.573 15.4688C114.411 15.7713 114.33 16.125 114.33 16.5298V22.5H112.017Z" fill="#071F41"/>
</svg>
