<svg width="64" height="64" viewBox="0 0 64 64" fill="none" xmlns="http://www.w3.org/2000/svg">
<rect x="0.5" y="0.5" width="63" height="63" rx="31.5" fill="white"/>
<rect x="0.5" y="0.5" width="63" height="63" rx="31.5" stroke="#2095D4"/>
<path d="M44.375 30.3125V47.1875H34.8125L33.6875 48.3125H30.3125L29.1875 47.1875H19.625V30.3125H44.375Z" fill="#274C77"/>
<path d="M27.2694 27.2469C26.6338 27.0444 25.9531 26.9375 25.25 26.9375V41.5625C28.9794 41.5625 32 44.5831 32 48.3125C32 44.5831 35.0206 41.5625 38.75 41.5625V26.9375C38.0469 26.9375 37.3663 27.0444 36.7306 27.2469C36.3256 27.6406 35.87 27.9894 35.375 28.2762V29.1875C35.6844 29.1875 35.9375 29.4406 35.9375 29.75V30.875C35.9375 31.1844 35.6844 31.4375 35.375 31.4375H28.625C28.3156 31.4375 28.0625 31.1844 28.0625 30.875V29.75C28.0625 29.4406 28.3156 29.1875 28.625 29.1875V28.2762C28.13 27.9894 27.68 27.6462 27.275 27.2469" fill="#A3CEF1"/>
<path d="M35.375 31.4375C35.375 33.2994 33.8619 34.8125 32 34.8125C30.1381 34.8125 28.625 33.2994 28.625 31.4375" fill="#6096BA"/>
<path d="M38.75 22.4375C38.75 18.7081 35.7294 15.6875 32 15.6875C28.2706 15.6875 25.25 18.7081 25.25 22.4375C25.25 24.935 26.6113 27.1119 28.625 28.2762V29.1875H35.375V28.2762C37.3888 27.1062 38.75 24.935 38.75 22.4375Z" fill="#F5DD90"/>
<path d="M35.375 29.1875H28.625C28.3143 29.1875 28.0625 29.4393 28.0625 29.75V30.875C28.0625 31.1857 28.3143 31.4375 28.625 31.4375H35.375C35.6857 31.4375 35.9375 31.1857 35.9375 30.875V29.75C35.9375 29.4393 35.6857 29.1875 35.375 29.1875Z" fill="#274C77"/>
<path d="M35.8981 24.7269C36.0894 24.395 36.4156 24.1981 36.7644 24.1644C36.9556 23.6244 37.0625 23.045 37.0625 22.4375C37.0625 21.83 36.9556 21.2506 36.7644 20.7106C36.4156 20.6769 36.0837 20.48 35.8981 20.1481C35.7069 19.8163 35.7069 19.4225 35.8531 19.0963C35.1106 18.2131 34.0869 17.5888 32.9169 17.375C32.7144 17.6675 32.3769 17.8588 32 17.8588C31.6231 17.8588 31.2856 17.6675 31.0831 17.375C29.9131 17.5944 28.8894 18.2188 28.1469 19.0963C28.2931 19.4225 28.2875 19.8106 28.1019 20.1481C27.9106 20.48 27.5844 20.6769 27.2356 20.7106C27.0444 21.2506 26.9375 21.83 26.9375 22.4375C26.9375 23.045 27.0444 23.6244 27.2356 24.1644C27.5844 24.1981 27.9162 24.395 28.1019 24.7269C28.2931 25.0587 28.2931 25.4525 28.1469 25.7788C28.8894 26.6619 29.9131 27.2863 31.0831 27.5C31.2856 27.2075 31.6231 27.0162 32 27.0162C32.3769 27.0162 32.7144 27.2075 32.9169 27.5C34.0869 27.2806 35.1106 26.6562 35.8531 25.7788C35.7069 25.4525 35.7125 25.0644 35.8981 24.7269Z" fill="#A3CEF1"/>
<path d="M32 25.25C33.5533 25.25 34.8125 23.9908 34.8125 22.4375C34.8125 20.8842 33.5533 19.625 32 19.625C30.4467 19.625 29.1875 20.8842 29.1875 22.4375C29.1875 23.9908 30.4467 25.25 32 25.25Z" fill="#FFBC0A"/>
<path d="M32.5625 34.25H31.4375V48.3125H32.5625V34.25Z" fill="#6096BA"/>
<path d="M32 48.3125C32 44.5831 28.9794 41.5625 25.25 41.5625V27.5L21.875 28.625V43.8125C21.875 43.8125 28.7094 42.125 32 48.3125Z" fill="#6096BA"/>
<path d="M42.125 43.8125V28.625L38.75 27.5V41.5625C35.0206 41.5625 32 44.5831 32 48.3125C35.2906 42.125 42.125 43.8125 42.125 43.8125Z" fill="#6096BA"/>
</svg>
