<svg width="24" height="25" viewBox="0 0 24 25" fill="none" xmlns="http://www.w3.org/2000/svg">
<path d="M23.1943 7.87565L13.1476 4.18278C12.5213 3.94044 12.6527 3.9389 12.0315 4.17926L1.92426 7.84247C1.30304 8.08283 1.30707 8.47415 1.93336 8.71646L4.33505 9.58737C3.27151 10.6891 3.20257 11.8346 3.18828 13.1628C2.77726 13.3321 2.48548 13.758 2.48548 14.2571C2.48548 14.7154 2.73154 15.112 3.08996 15.3049C2.91961 16.6544 2.43212 18.1961 1 20.0228C1.70846 20.6091 2.07412 20.8045 2.62259 21C4.62462 20.081 4.38124 17.6373 4.2254 15.207C4.50039 14.9939 4.6794 14.648 4.6794 14.2571C4.6794 13.8381 4.4737 13.4707 4.16455 13.2633C4.20016 11.9619 4.46532 10.7976 5.37542 10.0444C5.38288 10.0245 5.40404 10.0062 5.44336 9.98932L12.3499 7.00525C12.6061 6.89548 12.8969 7.02846 12.9996 7.30231L13.0087 7.32649C13.1114 7.60032 12.987 7.91129 12.7309 8.02104L6.89412 10.5154L12.1171 12.4094C12.7434 12.6517 12.612 12.6533 13.2333 12.4129L23.2034 8.74961C23.8246 8.50925 23.8205 8.11794 23.1943 7.87565ZM12.1013 13.8263L5.77895 11.5353V13.2583C6.10947 13.582 6.29185 14.0464 6.29185 14.5625C6.29185 15.0265 6.1402 15.4485 5.88407 15.7643C5.96787 16.0349 6.11382 16.2993 6.32229 16.3825C10.0017 18.5569 15.0876 18.5324 19.1783 16.1627C19.4817 15.8926 19.7164 15.5582 19.7164 15.2343V11.4392L13.2221 13.8298C12.601 14.0702 12.7276 14.0687 12.1013 13.8263Z" fill="#1E1E1E" fill-opacity="0.7"/>
</svg>
