<svg width="215" height="48" viewBox="0 0 215 48" fill="none" xmlns="http://www.w3.org/2000/svg">
<path fill-rule="evenodd" clip-rule="evenodd" d="M48 24C48 37.2548 37.2548 48 24 48C23.0028 48 22.0198 47.9392 21.0545 47.8211V21.8182H11.2364V44.3283C4.48597 40.081 0 32.5644 0 24C0 10.7452 10.7452 0 24 0C37.2548 0 48 10.7452 48 24ZM16.0362 18.6545C19.1992 18.6545 21.7634 16.0904 21.7634 12.9273C21.7634 9.76418 19.1992 7.2 16.0362 7.2C12.8731 7.2 10.3089 9.76418 10.3089 12.9273C10.3089 16.0904 12.8731 18.6545 16.0362 18.6545Z" fill="#1D7AFC"/>
<path d="M58.2386 36V18.5455H62.3523V36H58.2386ZM60.3068 16.0682C59.6553 16.0682 59.0947 15.8523 58.625 15.4205C58.1553 14.9811 57.9205 14.4545 57.9205 13.8409C57.9205 13.2197 58.1553 12.6932 58.625 12.2614C59.0947 11.822 59.6553 11.6023 60.3068 11.6023C60.9659 11.6023 61.5265 11.822 61.9886 12.2614C62.4583 12.6932 62.6932 13.2197 62.6932 13.8409C62.6932 14.4545 62.4583 14.9811 61.9886 15.4205C61.5265 15.8523 60.9659 16.0682 60.3068 16.0682ZM70.696 12.7273V36H66.5824V12.7273H70.696ZM74.9261 36V18.5455H78.858V21.5114H79.0625C79.4261 20.5114 80.0284 19.7311 80.8693 19.1705C81.7102 18.6023 82.714 18.3182 83.8807 18.3182C85.0625 18.3182 86.0587 18.6061 86.8693 19.1818C87.6875 19.75 88.2633 20.5265 88.5966 21.5114H88.7784C89.1648 20.5417 89.8163 19.7689 90.733 19.1932C91.6572 18.6098 92.7519 18.3182 94.017 18.3182C95.6231 18.3182 96.9337 18.8258 97.9489 19.8409C98.964 20.8561 99.4716 22.3371 99.4716 24.2841V36H95.3466V24.9205C95.3466 23.8371 95.0587 23.0455 94.483 22.5455C93.9072 22.0379 93.2027 21.7841 92.3693 21.7841C91.3769 21.7841 90.6004 22.0947 90.0398 22.7159C89.4867 23.3295 89.2102 24.1288 89.2102 25.1136V36H85.1761V24.75C85.1761 23.8485 84.9034 23.1288 84.358 22.5909C83.8201 22.053 83.1155 21.7841 82.2443 21.7841C81.6534 21.7841 81.1155 21.9356 80.6307 22.2386C80.1458 22.5341 79.7595 22.9545 79.4716 23.5C79.1837 24.0379 79.0398 24.6667 79.0398 25.3864V36H74.9261ZM107.759 12.7273V36H103.645V12.7273H107.759ZM117.011 36.3523C115.905 36.3523 114.909 36.1553 114.023 35.7614C113.144 35.3598 112.447 34.7689 111.932 33.9886C111.424 33.2083 111.17 32.2462 111.17 31.1023C111.17 30.1174 111.352 29.303 111.716 28.6591C112.08 28.0152 112.576 27.5 113.205 27.1136C113.833 26.7273 114.542 26.4356 115.33 26.2386C116.125 26.0341 116.947 25.8864 117.795 25.7955C118.818 25.6894 119.648 25.5947 120.284 25.5114C120.92 25.4205 121.383 25.2841 121.67 25.1023C121.966 24.9129 122.114 24.6212 122.114 24.2273V24.1591C122.114 23.303 121.86 22.6402 121.352 22.1705C120.845 21.7008 120.114 21.4659 119.159 21.4659C118.152 21.4659 117.352 21.6856 116.761 22.125C116.178 22.5644 115.784 23.0833 115.58 23.6818L111.739 23.1364C112.042 22.0758 112.542 21.1894 113.239 20.4773C113.936 19.7576 114.788 19.2197 115.795 18.8636C116.803 18.5 117.917 18.3182 119.136 18.3182C119.977 18.3182 120.814 18.4167 121.648 18.6136C122.481 18.8106 123.242 19.1364 123.932 19.5909C124.621 20.0379 125.174 20.6477 125.591 21.4205C126.015 22.1932 126.227 23.1591 126.227 24.3182V36H122.273V33.6023H122.136C121.886 34.0871 121.534 34.5417 121.08 34.9659C120.633 35.3826 120.068 35.7197 119.386 35.9773C118.712 36.2273 117.92 36.3523 117.011 36.3523ZM118.08 33.3295C118.905 33.3295 119.621 33.1667 120.227 32.8409C120.833 32.5076 121.299 32.0682 121.625 31.5227C121.958 30.9773 122.125 30.3826 122.125 29.7386V27.6818C121.996 27.7879 121.777 27.8864 121.466 27.9773C121.163 28.0682 120.822 28.1477 120.443 28.2159C120.064 28.2841 119.689 28.3447 119.318 28.3977C118.947 28.4508 118.625 28.4962 118.352 28.5341C117.739 28.6174 117.189 28.7538 116.705 28.9432C116.22 29.1326 115.837 29.3977 115.557 29.7386C115.277 30.072 115.136 30.5038 115.136 31.0341C115.136 31.7917 115.413 32.3636 115.966 32.75C116.519 33.1364 117.223 33.3295 118.08 33.3295ZM130.364 36V18.5455H134.352V21.4545H134.534C134.852 20.447 135.398 19.6705 136.17 19.125C136.951 18.572 137.841 18.2955 138.841 18.2955C139.068 18.2955 139.322 18.3068 139.602 18.3295C139.89 18.3447 140.129 18.3712 140.318 18.4091V22.1932C140.144 22.1326 139.867 22.0795 139.489 22.0341C139.117 21.9811 138.758 21.9545 138.409 21.9545C137.659 21.9545 136.985 22.1174 136.386 22.4432C135.795 22.7614 135.33 23.2045 134.989 23.7727C134.648 24.3409 134.477 24.9962 134.477 25.7386V36H130.364ZM143.585 36.25C142.896 36.25 142.305 36.0076 141.812 35.5227C141.32 35.0379 141.078 34.447 141.085 33.75C141.078 33.0682 141.32 32.4848 141.812 32C142.305 31.5152 142.896 31.2727 143.585 31.2727C144.252 31.2727 144.831 31.5152 145.324 32C145.824 32.4848 146.078 33.0682 146.085 33.75C146.078 34.2121 145.956 34.6326 145.722 35.0114C145.494 35.3902 145.191 35.6932 144.812 35.9205C144.441 36.1402 144.032 36.25 143.585 36.25ZM157.946 36.3409C156.204 36.3409 154.707 35.9583 153.457 35.1932C152.215 34.428 151.257 33.3712 150.582 32.0227C149.916 30.6667 149.582 29.1061 149.582 27.3409C149.582 25.5682 149.923 24.0038 150.605 22.6477C151.287 21.2841 152.249 20.2235 153.491 19.4659C154.741 18.7008 156.219 18.3182 157.923 18.3182C159.34 18.3182 160.594 18.5795 161.685 19.1023C162.783 19.6174 163.658 20.3485 164.31 21.2955C164.961 22.2348 165.332 23.3333 165.423 24.5909H161.491C161.332 23.75 160.954 23.0492 160.355 22.4886C159.764 21.9205 158.973 21.6364 157.98 21.6364C157.139 21.6364 156.401 21.8636 155.764 22.3182C155.128 22.7652 154.632 23.4091 154.276 24.25C153.927 25.0909 153.753 26.0985 153.753 27.2727C153.753 28.4621 153.927 29.4848 154.276 30.3409C154.624 31.1894 155.113 31.8447 155.741 32.3068C156.378 32.7614 157.124 32.9886 157.98 32.9886C158.586 32.9886 159.128 32.875 159.605 32.6477C160.09 32.4129 160.495 32.0758 160.821 31.6364C161.147 31.197 161.37 30.6629 161.491 30.0341H165.423C165.325 31.2689 164.961 32.3636 164.332 33.3182C163.704 34.2652 162.848 35.0076 161.764 35.5455C160.681 36.0758 159.408 36.3409 157.946 36.3409ZM176.415 36.3409C174.71 36.3409 173.233 35.9659 171.983 35.2159C170.733 34.4659 169.763 33.4167 169.074 32.0682C168.392 30.7197 168.051 29.1439 168.051 27.3409C168.051 25.5379 168.392 23.9583 169.074 22.6023C169.763 21.2462 170.733 20.1932 171.983 19.4432C173.233 18.6932 174.71 18.3182 176.415 18.3182C178.119 18.3182 179.597 18.6932 180.847 19.4432C182.097 20.1932 183.063 21.2462 183.744 22.6023C184.434 23.9583 184.778 25.5379 184.778 27.3409C184.778 29.1439 184.434 30.7197 183.744 32.0682C183.063 33.4167 182.097 34.4659 180.847 35.2159C179.597 35.9659 178.119 36.3409 176.415 36.3409ZM176.438 33.0455C177.362 33.0455 178.134 32.7917 178.756 32.2841C179.377 31.7689 179.839 31.0795 180.142 30.2159C180.453 29.3523 180.608 28.3902 180.608 27.3295C180.608 26.2614 180.453 25.2955 180.142 24.4318C179.839 23.5606 179.377 22.8674 178.756 22.3523C178.134 21.8371 177.362 21.5795 176.438 21.5795C175.491 21.5795 174.703 21.8371 174.074 22.3523C173.453 22.8674 172.987 23.5606 172.676 24.4318C172.373 25.2955 172.222 26.2614 172.222 27.3295C172.222 28.3902 172.373 29.3523 172.676 30.2159C172.987 31.0795 173.453 31.7689 174.074 32.2841C174.703 32.7917 175.491 33.0455 176.438 33.0455ZM188.27 36V18.5455H192.202V21.5114H192.406C192.77 20.5114 193.372 19.7311 194.213 19.1705C195.054 18.6023 196.058 18.3182 197.224 18.3182C198.406 18.3182 199.402 18.6061 200.213 19.1818C201.031 19.75 201.607 20.5265 201.94 21.5114H202.122C202.509 20.5417 203.16 19.7689 204.077 19.1932C205.001 18.6098 206.096 18.3182 207.361 18.3182C208.967 18.3182 210.277 18.8258 211.293 19.8409C212.308 20.8561 212.815 22.3371 212.815 24.2841V36H208.69V24.9205C208.69 23.8371 208.402 23.0455 207.827 22.5455C207.251 22.0379 206.546 21.7841 205.713 21.7841C204.721 21.7841 203.944 22.0947 203.384 22.7159C202.83 23.3295 202.554 24.1288 202.554 25.1136V36H198.52V24.75C198.52 23.8485 198.247 23.1288 197.702 22.5909C197.164 22.053 196.459 21.7841 195.588 21.7841C194.997 21.7841 194.459 21.9356 193.974 22.2386C193.49 22.5341 193.103 22.9545 192.815 23.5C192.527 24.0379 192.384 24.6667 192.384 25.3864V36H188.27Z" fill="#071F41"/>
</svg>
