<svg width="568" height="360" viewBox="0 0 568 360" fill="none" xmlns="http://www.w3.org/2000/svg">
<g clip-path="url(#clip0_10_2594)">
<rect width="568" height="360" rx="24" fill="#1D7AFC"/>
<path opacity="0.25" d="M678.438 231.6C648.465 240.318 617.428 220.462 596.872 196.814C576.316 173.167 560.797 144.486 535.649 125.872C482.229 86.3735 397.559 111.413 365.353 169.761C333.148 228.13 350.494 306.377 397.389 353.565C444.262 400.753 514.838 418.917 580.737 411.913C638.643 405.766 695.423 380.811 735.026 337.822C774.629 294.832 795.335 233.207 784.047 175.652C777.435 141.937 741.765 98.0045 725.163 141.251C712.302 174.859 725.078 218.042 678.438 231.6Z" fill="#4A148C"/>
<path opacity="0.25" d="M9.42854 64.7377C-14.6746 42.4595 -29.3023 10.7292 -34.618 -27.4711C-36.8675 -43.5953 -37.722 -60.2376 -43.9677 -75.1866C-50.2134 -90.1483 -63.5342 -103.404 -79.2804 -103.341C-98.6081 -103.252 -112.796 -83.7289 -117.961 -64.4582C-128.819 -23.9328 -127.424 23.2014 -97.452 55.3741C-74.1155 80.4323 -38.8907 92.6519 -18.2058 119.947C1.82564 146.37 5.47 183.534 28.7563 207.114C41.0214 219.535 57.597 226.814 74.4114 231.376C98.2254 237.82 124.1 239.185 147.186 230.491C170.283 221.797 189.963 201.781 194.009 177.317C204.616 113.186 123.07 104.72 80.1921 97.7065C51.188 92.9552 27.6127 81.5317 9.42854 64.7377Z" fill="white"/>
<path d="M47.9761 182.104V178.255H53.7909V161.138H48.9998V158.19C50.2829 157.944 51.4022 157.657 52.3577 157.33C53.3132 156.975 54.2004 156.552 55.0194 156.06H58.5411V178.255H63.6597V182.104H47.9761ZM69.1345 182.104V179.361C71.5642 177.013 73.6526 174.924 75.3998 173.095C77.1743 171.239 78.5393 169.56 79.4947 168.059C80.4502 166.53 80.928 165.11 80.928 163.8C80.928 162.435 80.5594 161.343 79.8223 160.524C79.0853 159.705 78.0206 159.295 76.6283 159.295C75.6182 159.295 74.69 159.582 73.8437 160.155C73.0247 160.729 72.2603 161.411 71.5505 162.203L68.9298 159.582C70.1309 158.299 71.3731 157.316 72.6562 156.634C73.9393 155.924 75.468 155.569 77.2425 155.569C79.7541 155.569 81.747 156.292 83.2212 157.739C84.7226 159.186 85.4734 161.124 85.4734 163.554C85.4734 165.083 85.0366 166.653 84.163 168.263C83.3167 169.847 82.1701 171.471 80.7232 173.136C79.3036 174.802 77.7339 176.549 76.014 178.378C76.6965 178.323 77.4336 178.269 78.2253 178.214C79.017 178.132 79.7268 178.091 80.3547 178.091H86.7428V182.104H69.1345ZM100.694 182.596C97.9915 182.596 95.8348 181.422 94.2241 179.074C92.6407 176.726 91.849 173.355 91.849 168.959C91.849 164.564 92.6407 161.234 94.2241 158.968C95.8348 156.702 97.9915 155.569 100.694 155.569C103.397 155.569 105.54 156.702 107.123 158.968C108.734 161.234 109.539 164.564 109.539 168.959C109.539 173.355 108.734 176.726 107.123 179.074C105.54 181.422 103.397 182.596 100.694 182.596ZM100.694 178.91C101.54 178.91 102.291 178.596 102.946 177.968C103.602 177.313 104.107 176.262 104.461 174.815C104.844 173.368 105.035 171.416 105.035 168.959C105.035 166.502 104.844 164.564 104.461 163.145C104.107 161.725 103.602 160.729 102.946 160.155C102.291 159.555 101.54 159.254 100.694 159.254C99.8751 159.254 99.1381 159.555 98.4829 160.155C97.8277 160.729 97.309 161.725 96.9268 163.145C96.5446 164.564 96.3535 166.502 96.3535 168.959C96.3535 171.416 96.5446 173.368 96.9268 174.815C97.309 176.262 97.8277 177.313 98.4829 177.968C99.1381 178.596 99.8751 178.91 100.694 178.91ZM133.163 182.596C130.46 182.596 128.303 181.422 126.693 179.074C125.109 176.726 124.318 173.355 124.318 168.959C124.318 164.564 125.109 161.234 126.693 158.968C128.303 156.702 130.46 155.569 133.163 155.569C135.865 155.569 138.008 156.702 139.592 158.968C141.202 161.234 142.008 164.564 142.008 168.959C142.008 173.355 141.202 176.726 139.592 179.074C138.008 181.422 135.865 182.596 133.163 182.596ZM133.163 178.91C134.009 178.91 134.76 178.596 135.415 177.968C136.07 177.313 136.575 176.262 136.93 174.815C137.312 173.368 137.503 171.416 137.503 168.959C137.503 166.502 137.312 164.564 136.93 163.145C136.575 161.725 136.07 160.729 135.415 160.155C134.76 159.555 134.009 159.254 133.163 159.254C132.344 159.254 131.607 159.555 130.951 160.155C130.296 160.729 129.777 161.725 129.395 163.145C129.013 164.564 128.822 166.502 128.822 168.959C128.822 171.416 129.013 173.368 129.395 174.815C129.777 176.262 130.296 177.313 130.951 177.968C131.607 178.596 132.344 178.91 133.163 178.91ZM155.795 182.596C153.093 182.596 150.936 181.422 149.325 179.074C147.742 176.726 146.95 173.355 146.95 168.959C146.95 164.564 147.742 161.234 149.325 158.968C150.936 156.702 153.093 155.569 155.795 155.569C158.498 155.569 160.641 156.702 162.224 158.968C163.835 161.234 164.64 164.564 164.64 168.959C164.64 173.355 163.835 176.726 162.224 179.074C160.641 181.422 158.498 182.596 155.795 182.596ZM155.795 178.91C156.642 178.91 157.392 178.596 158.048 177.968C158.703 177.313 159.208 176.262 159.563 174.815C159.945 173.368 160.136 171.416 160.136 168.959C160.136 166.502 159.945 164.564 159.563 163.145C159.208 161.725 158.703 160.729 158.048 160.155C157.392 159.555 156.642 159.254 155.795 159.254C154.976 159.254 154.239 159.555 153.584 160.155C152.929 160.729 152.41 161.725 152.028 163.145C151.646 164.564 151.455 166.502 151.455 168.959C151.455 171.416 151.646 173.368 152.028 174.815C152.41 176.262 152.929 177.313 153.584 177.968C154.239 178.596 154.976 178.91 155.795 178.91ZM178.428 182.596C175.725 182.596 173.569 181.422 171.958 179.074C170.374 176.726 169.583 173.355 169.583 168.959C169.583 164.564 170.374 161.234 171.958 158.968C173.569 156.702 175.725 155.569 178.428 155.569C181.131 155.569 183.274 156.702 184.857 158.968C186.468 161.234 187.273 164.564 187.273 168.959C187.273 173.355 186.468 176.726 184.857 179.074C183.274 181.422 181.131 182.596 178.428 182.596ZM178.428 178.91C179.274 178.91 180.025 178.596 180.68 177.968C181.335 177.313 181.84 176.262 182.195 174.815C182.577 173.368 182.769 171.416 182.769 168.959C182.769 166.502 182.577 164.564 182.195 163.145C181.84 161.725 181.335 160.729 180.68 160.155C180.025 159.555 179.274 159.254 178.428 159.254C177.609 159.254 176.872 159.555 176.217 160.155C175.561 160.729 175.043 161.725 174.661 163.145C174.278 164.564 174.087 166.502 174.087 168.959C174.087 171.416 174.278 173.368 174.661 174.815C175.043 176.262 175.561 177.313 176.217 177.968C176.872 178.596 177.609 178.91 178.428 178.91ZM213.845 182.596C211.797 182.596 210.009 182.186 208.48 181.367C206.952 180.548 205.764 179.238 204.918 177.436C204.099 175.634 203.689 173.273 203.689 170.352V155.323H208.439V170.72C208.439 172.659 208.658 174.201 209.095 175.348C209.559 176.467 210.2 177.272 211.019 177.764C211.838 178.228 212.78 178.46 213.845 178.46C214.937 178.46 215.892 178.228 216.711 177.764C217.558 177.272 218.213 176.467 218.677 175.348C219.168 174.201 219.414 172.659 219.414 170.72V155.323H223.959V170.352C223.959 173.273 223.55 175.634 222.731 177.436C221.912 179.238 220.738 180.548 219.209 181.367C217.708 182.186 215.92 182.596 213.845 182.596ZM230.522 182.104V179.238L243.463 159.336H231.71V155.323H249.359V158.19L236.378 178.091H249.441V182.104H230.522ZM262.617 182.596C260.816 182.596 259.068 182.254 257.376 181.572C255.71 180.889 254.236 179.92 252.953 178.664L255.738 175.429C256.693 176.33 257.785 177.067 259.014 177.641C260.242 178.187 261.471 178.46 262.699 178.46C264.228 178.46 265.388 178.146 266.18 177.518C266.972 176.89 267.367 176.057 267.367 175.02C267.367 173.901 266.972 173.095 266.18 172.604C265.416 172.113 264.433 171.608 263.232 171.089L259.546 169.492C258.673 169.11 257.813 168.618 256.966 168.018C256.147 167.417 255.465 166.653 254.919 165.724C254.4 164.796 254.141 163.677 254.141 162.367C254.141 160.947 254.523 159.678 255.287 158.558C256.079 157.412 257.144 156.511 258.481 155.856C259.846 155.173 261.402 154.832 263.15 154.832C264.706 154.832 266.207 155.146 267.654 155.774C269.101 156.374 270.343 157.193 271.381 158.231L268.965 161.261C268.118 160.551 267.217 159.991 266.262 159.582C265.334 159.172 264.296 158.968 263.15 158.968C261.894 158.968 260.87 159.254 260.078 159.828C259.314 160.374 258.932 161.138 258.932 162.121C258.932 162.803 259.123 163.377 259.505 163.841C259.915 164.278 260.447 164.66 261.102 164.987C261.757 165.288 262.454 165.588 263.191 165.888L266.835 167.403C268.419 168.086 269.715 168.987 270.725 170.106C271.735 171.198 272.24 172.713 272.24 174.651C272.24 176.098 271.858 177.422 271.094 178.624C270.329 179.825 269.224 180.794 267.777 181.531C266.357 182.241 264.637 182.596 262.617 182.596Z" fill="white"/>
<path d="M29.4599 331.923C28.2921 331.923 27.3063 331.726 26.5025 331.331C25.7138 330.922 25.0617 330.437 24.546 329.875L25.7972 328.192C26.2371 328.632 26.7376 329.011 27.2987 329.329C27.8599 329.633 28.5045 329.784 29.2324 329.784C30.0211 329.784 30.6581 329.595 31.1434 329.216C31.6439 328.821 31.8942 328.283 31.8942 327.6C31.8942 327.1 31.7652 326.668 31.5074 326.304C31.2648 325.925 30.8325 325.636 30.2107 325.439C29.604 325.242 28.7471 325.143 27.64 325.143V323.232C29.0656 323.232 30.0514 323.013 30.5974 322.573C31.1434 322.133 31.4164 321.579 31.4164 320.912C31.4164 320.305 31.2268 319.835 30.8477 319.502C30.4685 319.153 29.9453 318.978 29.2779 318.978C28.7168 318.978 28.2011 319.107 27.731 319.365C27.2608 319.608 26.8058 319.934 26.366 320.343L25.0237 318.728C25.6456 318.182 26.3053 317.742 27.003 317.409C27.7158 317.075 28.5045 316.908 29.3689 316.908C30.7643 316.908 31.8942 317.242 32.7587 317.909C33.6231 318.561 34.0554 319.502 34.0554 320.73C34.0554 321.534 33.8279 322.216 33.3729 322.777C32.9331 323.323 32.3188 323.748 31.5302 324.051V324.142C32.3795 324.37 33.0923 324.787 33.6686 325.394C34.245 326 34.5331 326.781 34.5331 327.737C34.5331 328.617 34.2981 329.367 33.8279 329.989C33.3729 330.611 32.7587 331.089 31.9852 331.422C31.2268 331.756 30.3851 331.923 29.4599 331.923ZM42.4204 331.923C41.48 331.923 40.6383 331.756 39.8951 331.422C39.152 331.074 38.5681 330.603 38.1434 330.012C37.7188 329.42 37.5064 328.73 37.5064 327.942C37.5064 327.047 37.7718 326.296 38.3027 325.689C38.8335 325.083 39.4402 324.597 40.1226 324.233V324.142C39.5615 323.748 39.0837 323.278 38.6894 322.732C38.3102 322.171 38.1207 321.511 38.1207 320.753C38.1207 319.964 38.3102 319.289 38.6894 318.728C39.0686 318.152 39.5842 317.704 40.2364 317.386C40.9037 317.067 41.6545 316.908 42.4886 316.908C43.7929 316.908 44.8243 317.272 45.5826 318C46.3561 318.713 46.7428 319.653 46.7428 320.821C46.7428 321.534 46.5381 322.178 46.1286 322.755C45.7191 323.331 45.2793 323.794 44.8091 324.142V324.233C45.4764 324.613 46.0603 325.09 46.5608 325.667C47.0613 326.243 47.3116 327.017 47.3116 327.987C47.3116 328.73 47.1068 329.398 46.6973 329.989C46.2878 330.581 45.7191 331.051 44.9911 331.4C44.2631 331.748 43.4062 331.923 42.4204 331.923ZM43.3759 323.483C43.7702 323.088 44.0659 322.686 44.2631 322.277C44.4754 321.868 44.5816 321.435 44.5816 320.98C44.5816 320.343 44.392 319.82 44.0129 319.411C43.6337 318.986 43.1104 318.774 42.4431 318.774C41.882 318.774 41.4118 318.948 41.0326 319.297C40.6535 319.646 40.4639 320.131 40.4639 320.753C40.4639 321.238 40.5928 321.648 40.8506 321.981C41.1085 322.3 41.4573 322.58 41.8971 322.823C42.3521 323.05 42.845 323.27 43.3759 323.483ZM42.4659 330.057C43.1635 330.057 43.7323 329.868 44.1721 329.489C44.6271 329.094 44.8546 328.564 44.8546 327.896C44.8546 327.365 44.6953 326.933 44.3768 326.599C44.0735 326.266 43.6564 325.978 43.1256 325.735C42.6099 325.477 42.026 325.219 41.3739 324.961C40.9189 325.295 40.5397 325.689 40.2364 326.144C39.9482 326.599 39.8041 327.108 39.8041 327.669C39.8041 328.382 40.062 328.958 40.5776 329.398C41.0933 329.838 41.7227 330.057 42.4659 330.057ZM50.0119 331.65V330.126C51.3617 328.821 52.5219 327.661 53.4926 326.645C54.4784 325.614 55.2367 324.681 55.7675 323.847C56.2984 322.997 56.5638 322.209 56.5638 321.481C56.5638 320.722 56.359 320.116 55.9495 319.661C55.54 319.206 54.9486 318.978 54.1751 318.978C53.6139 318.978 53.0982 319.138 52.6281 319.456C52.1731 319.775 51.7484 320.154 51.3541 320.594L49.8981 319.138C50.5654 318.425 51.2555 317.879 51.9683 317.5C52.6812 317.105 53.5305 316.908 54.5163 316.908C55.9116 316.908 57.0188 317.31 57.8378 318.114C58.6719 318.918 59.089 319.994 59.089 321.344C59.089 322.194 58.8463 323.066 58.361 323.96C57.8909 324.84 57.2539 325.743 56.45 326.668C55.6614 327.593 54.7893 328.564 53.8338 329.58C54.213 329.549 54.6225 329.519 55.0623 329.489C55.5021 329.443 55.8965 329.42 56.2453 329.42H59.7942V331.65H50.0119ZM65.543 331.65C65.634 329.936 65.816 328.404 66.089 327.054C66.362 325.689 66.7791 324.393 67.3402 323.164C67.9014 321.936 68.6446 320.677 69.5697 319.388H62.722V317.181H72.4362V318.774C71.5869 319.82 70.8968 320.821 70.366 321.777C69.8503 322.732 69.4408 323.703 69.1375 324.688C68.8493 325.659 68.637 326.713 68.5005 327.851C68.364 328.973 68.2654 330.239 68.2047 331.65H65.543ZM82.7621 325.894H86.5613V322.618C86.5613 322.194 86.5765 321.693 86.6068 321.117C86.6371 320.54 86.6599 320.04 86.675 319.615H86.584C86.402 319.994 86.2125 320.366 86.0153 320.73C85.8181 321.094 85.6134 321.473 85.401 321.868L82.7621 325.894ZM86.5613 331.65V327.919H80.1686V326.144L85.9015 317.181H89.0183V325.894H90.8382V327.919H89.0183V331.65H86.5613ZM98.4297 324.597C98.0202 324.597 97.588 324.726 97.133 324.984C96.678 325.227 96.2458 325.652 95.8363 326.258C95.9728 327.547 96.2837 328.48 96.769 329.056C97.2543 329.633 97.8458 329.921 98.5435 329.921C99.1501 329.921 99.6582 329.686 100.068 329.216C100.492 328.73 100.705 328.048 100.705 327.168C100.705 326.319 100.5 325.682 100.09 325.257C99.6961 324.817 99.1426 324.597 98.4297 324.597ZM98.589 331.923C97.6487 331.923 96.7766 331.673 95.9728 331.172C95.1689 330.672 94.5244 329.898 94.039 328.852C93.5689 327.805 93.3338 326.471 93.3338 324.848C93.3338 322.967 93.5992 321.45 94.13 320.298C94.676 319.13 95.3813 318.273 96.2458 317.727C97.1102 317.181 98.0354 316.908 99.0212 316.908C99.9009 316.908 100.659 317.067 101.296 317.386C101.933 317.704 102.464 318.091 102.889 318.546L101.478 320.139C101.22 319.82 100.879 319.562 100.454 319.365C100.045 319.153 99.6203 319.047 99.1805 319.047C98.5738 319.047 98.0202 319.213 97.5197 319.547C97.0192 319.881 96.6097 320.442 96.2913 321.231C95.9879 322.004 95.8135 323.058 95.768 324.393C96.1927 323.862 96.6932 323.445 97.2695 323.141C97.8458 322.838 98.3918 322.686 98.9075 322.686C100.166 322.686 101.182 323.058 101.956 323.801C102.745 324.529 103.139 325.652 103.139 327.168C103.139 328.124 102.927 328.958 102.502 329.671C102.092 330.383 101.546 330.937 100.864 331.331C100.181 331.726 99.4231 331.923 98.589 331.923ZM110.366 331.923C109.199 331.923 108.213 331.726 107.409 331.331C106.62 330.922 105.968 330.437 105.452 329.875L106.704 328.192C107.144 328.632 107.644 329.011 108.205 329.329C108.766 329.633 109.411 329.784 110.139 329.784C110.928 329.784 111.565 329.595 112.05 329.216C112.55 328.821 112.801 328.283 112.801 327.6C112.801 327.1 112.672 326.668 112.414 326.304C112.171 325.925 111.739 325.636 111.117 325.439C110.51 325.242 109.654 325.143 108.546 325.143V323.232C109.972 323.232 110.958 323.013 111.504 322.573C112.05 322.133 112.323 321.579 112.323 320.912C112.323 320.305 112.133 319.835 111.754 319.502C111.375 319.153 110.852 318.978 110.184 318.978C109.623 318.978 109.108 319.107 108.637 319.365C108.167 319.608 107.712 319.934 107.272 320.343L105.93 318.728C106.552 318.182 107.212 317.742 107.909 317.409C108.622 317.075 109.411 316.908 110.275 316.908C111.671 316.908 112.801 317.242 113.665 317.909C114.53 318.561 114.962 319.502 114.962 320.73C114.962 321.534 114.734 322.216 114.279 322.777C113.84 323.323 113.225 323.748 112.437 324.051V324.142C113.286 324.37 113.999 324.787 114.575 325.394C115.151 326 115.44 326.781 115.44 327.737C115.44 328.617 115.205 329.367 114.734 329.989C114.279 330.611 113.665 331.089 112.892 331.422C112.133 331.756 111.292 331.923 110.366 331.923ZM121.302 331.65C121.393 329.936 121.575 328.404 121.848 327.054C122.121 325.689 122.538 324.393 123.099 323.164C123.661 321.936 124.404 320.677 125.329 319.388H118.481V317.181H128.195V318.774C127.346 319.82 126.656 320.821 126.125 321.777C125.609 322.732 125.2 323.703 124.897 324.688C124.608 325.659 124.396 326.713 124.26 327.851C124.123 328.973 124.025 330.239 123.964 331.65H121.302ZM140.978 331.923C139.81 331.923 138.825 331.726 138.021 331.331C137.232 330.922 136.58 330.437 136.064 329.875L137.315 328.192C137.755 328.632 138.256 329.011 138.817 329.329C139.378 329.633 140.023 329.784 140.751 329.784C141.539 329.784 142.176 329.595 142.662 329.216C143.162 328.821 143.412 328.283 143.412 327.6C143.412 327.1 143.283 326.668 143.026 326.304C142.783 325.925 142.351 325.636 141.729 325.439C141.122 325.242 140.265 325.143 139.158 325.143V323.232C140.584 323.232 141.57 323.013 142.116 322.573C142.662 322.133 142.935 321.579 142.935 320.912C142.935 320.305 142.745 319.835 142.366 319.502C141.987 319.153 141.463 318.978 140.796 318.978C140.235 318.978 139.719 319.107 139.249 319.365C138.779 319.608 138.324 319.934 137.884 320.343L136.542 318.728C137.164 318.182 137.824 317.742 138.521 317.409C139.234 317.075 140.023 316.908 140.887 316.908C142.282 316.908 143.412 317.242 144.277 317.909C145.141 318.561 145.574 319.502 145.574 320.73C145.574 321.534 145.346 322.216 144.891 322.777C144.451 323.323 143.837 323.748 143.048 324.051V324.142C143.898 324.37 144.611 324.787 145.187 325.394C145.763 326 146.051 326.781 146.051 327.737C146.051 328.617 145.816 329.367 145.346 329.989C144.891 330.611 144.277 331.089 143.503 331.422C142.745 331.756 141.903 331.923 140.978 331.923ZM149.775 331.65V329.511H153.006V320.002H150.344V318.364C151.057 318.228 151.679 318.068 152.21 317.886C152.74 317.689 153.233 317.454 153.688 317.181H155.645V329.511H158.489V331.65H149.775ZM166.49 331.923C164.988 331.923 163.79 331.271 162.895 329.966C162.015 328.662 161.576 326.789 161.576 324.347C161.576 321.905 162.015 320.055 162.895 318.796C163.79 317.537 164.988 316.908 166.49 316.908C167.991 316.908 169.182 317.537 170.061 318.796C170.956 320.055 171.403 321.905 171.403 324.347C171.403 326.789 170.956 328.662 170.061 329.966C169.182 331.271 167.991 331.923 166.49 331.923ZM166.49 329.875C166.96 329.875 167.377 329.701 167.741 329.352C168.105 328.988 168.385 328.404 168.583 327.6C168.795 326.797 168.901 325.712 168.901 324.347C168.901 322.982 168.795 321.905 168.583 321.117C168.385 320.328 168.105 319.775 167.741 319.456C167.377 319.122 166.96 318.956 166.49 318.956C166.035 318.956 165.625 319.122 165.261 319.456C164.897 319.775 164.609 320.328 164.397 321.117C164.184 321.905 164.078 322.982 164.078 324.347C164.078 325.712 164.184 326.797 164.397 327.6C164.609 328.404 164.897 328.988 165.261 329.352C165.625 329.701 166.035 329.875 166.49 329.875ZM178.699 331.923C177.531 331.923 176.546 331.726 175.742 331.331C174.953 330.922 174.301 330.437 173.785 329.875L175.036 328.192C175.476 328.632 175.977 329.011 176.538 329.329C177.099 329.633 177.744 329.784 178.472 329.784C179.26 329.784 179.897 329.595 180.383 329.216C180.883 328.821 181.133 328.283 181.133 327.6C181.133 327.1 181.005 326.668 180.747 326.304C180.504 325.925 180.072 325.636 179.45 325.439C178.843 325.242 177.986 325.143 176.879 325.143V323.232C178.305 323.232 179.291 323.013 179.837 322.573C180.383 322.133 180.656 321.579 180.656 320.912C180.656 320.305 180.466 319.835 180.087 319.502C179.708 319.153 179.185 318.978 178.517 318.978C177.956 318.978 177.44 319.107 176.97 319.365C176.5 319.608 176.045 319.934 175.605 320.343L174.263 318.728C174.885 318.182 175.545 317.742 176.242 317.409C176.955 317.075 177.744 316.908 178.608 316.908C180.004 316.908 181.133 317.242 181.998 317.909C182.862 318.561 183.295 319.502 183.295 320.73C183.295 321.534 183.067 322.216 182.612 322.777C182.172 323.323 181.558 323.748 180.769 324.051V324.142C181.619 324.37 182.332 324.787 182.908 325.394C183.484 326 183.772 326.781 183.772 327.737C183.772 328.617 183.537 329.367 183.067 329.989C182.612 330.611 181.998 331.089 181.224 331.422C180.466 331.756 179.624 331.923 178.699 331.923ZM195.099 331.65C195.19 329.936 195.372 328.404 195.645 327.054C195.918 325.689 196.335 324.393 196.897 323.164C197.458 321.936 198.201 320.677 199.126 319.388H192.278V317.181H201.992V318.774C201.143 319.82 200.453 320.821 199.922 321.777C199.407 322.732 198.997 323.703 198.694 324.688C198.406 325.659 198.193 326.713 198.057 327.851C197.92 328.973 197.822 330.239 197.761 331.65H195.099ZM209.311 331.923C208.143 331.923 207.157 331.726 206.353 331.331C205.565 330.922 204.913 330.437 204.397 329.875L205.648 328.192C206.088 328.632 206.589 329.011 207.15 329.329C207.711 329.633 208.355 329.784 209.083 329.784C209.872 329.784 210.509 329.595 210.994 329.216C211.495 328.821 211.745 328.283 211.745 327.6C211.745 327.1 211.616 326.668 211.358 326.304C211.116 325.925 210.684 325.636 210.062 325.439C209.455 325.242 208.598 325.143 207.491 325.143V323.232C208.917 323.232 209.902 323.013 210.448 322.573C210.994 322.133 211.267 321.579 211.267 320.912C211.267 320.305 211.078 319.835 210.699 319.502C210.32 319.153 209.796 318.978 209.129 318.978C208.568 318.978 208.052 319.107 207.582 319.365C207.112 319.608 206.657 319.934 206.217 320.343L204.875 318.728C205.497 318.182 206.156 317.742 206.854 317.409C207.567 317.075 208.355 316.908 209.22 316.908C210.615 316.908 211.745 317.242 212.61 317.909C213.474 318.561 213.906 319.502 213.906 320.73C213.906 321.534 213.679 322.216 213.224 322.777C212.784 323.323 212.17 323.748 211.381 324.051V324.142C212.231 324.37 212.943 324.787 213.52 325.394C214.096 326 214.384 326.781 214.384 327.737C214.384 328.617 214.149 329.367 213.679 329.989C213.224 330.611 212.61 331.089 211.836 331.422C211.078 331.756 210.236 331.923 209.311 331.923ZM222.271 331.923C221.331 331.923 220.489 331.756 219.746 331.422C219.003 331.074 218.419 330.603 217.994 330.012C217.57 329.42 217.357 328.73 217.357 327.942C217.357 327.047 217.623 326.296 218.154 325.689C218.685 325.083 219.291 324.597 219.974 324.233V324.142C219.412 323.748 218.935 323.278 218.54 322.732C218.161 322.171 217.972 321.511 217.972 320.753C217.972 319.964 218.161 319.289 218.54 318.728C218.92 318.152 219.435 317.704 220.087 317.386C220.755 317.067 221.505 316.908 222.34 316.908C223.644 316.908 224.675 317.272 225.434 318C226.207 318.713 226.594 319.653 226.594 320.821C226.594 321.534 226.389 322.178 225.98 322.755C225.57 323.331 225.13 323.794 224.66 324.142V324.233C225.327 324.613 225.911 325.09 226.412 325.667C226.912 326.243 227.163 327.017 227.163 327.987C227.163 328.73 226.958 329.398 226.548 329.989C226.139 330.581 225.57 331.051 224.842 331.4C224.114 331.748 223.257 331.923 222.271 331.923ZM223.227 323.483C223.621 323.088 223.917 322.686 224.114 322.277C224.326 321.868 224.433 321.435 224.433 320.98C224.433 320.343 224.243 319.82 223.864 319.411C223.485 318.986 222.961 318.774 222.294 318.774C221.733 318.774 221.263 318.948 220.884 319.297C220.504 319.646 220.315 320.131 220.315 320.753C220.315 321.238 220.444 321.648 220.702 321.981C220.959 322.3 221.308 322.58 221.748 322.823C222.203 323.05 222.696 323.27 223.227 323.483ZM222.317 330.057C223.015 330.057 223.583 329.868 224.023 329.489C224.478 329.094 224.706 328.564 224.706 327.896C224.706 327.365 224.546 326.933 224.228 326.599C223.925 326.266 223.507 325.978 222.977 325.735C222.461 325.477 221.877 325.219 221.225 324.961C220.77 325.295 220.391 325.689 220.087 326.144C219.799 326.599 219.655 327.108 219.655 327.669C219.655 328.382 219.913 328.958 220.429 329.398C220.944 329.838 221.574 330.057 222.317 330.057ZM232.252 321.64C232.252 322.489 232.449 323.134 232.843 323.574C233.253 324.014 233.821 324.233 234.549 324.233C234.974 324.233 235.414 324.105 235.869 323.847C236.339 323.574 236.764 323.141 237.143 322.55C237.006 321.276 236.695 320.351 236.21 319.775C235.725 319.198 235.126 318.91 234.413 318.91C233.821 318.91 233.313 319.145 232.889 319.615C232.464 320.085 232.252 320.76 232.252 321.64ZM233.935 331.923C233.071 331.923 232.32 331.764 231.683 331.445C231.046 331.127 230.507 330.74 230.068 330.285L231.478 328.692C231.751 329.011 232.092 329.276 232.502 329.489C232.927 329.686 233.359 329.784 233.799 329.784C234.405 329.784 234.959 329.618 235.459 329.284C235.96 328.95 236.369 328.397 236.688 327.623C237.006 326.835 237.181 325.773 237.211 324.438C236.786 324.954 236.286 325.363 235.71 325.667C235.133 325.97 234.58 326.122 234.049 326.122C232.805 326.122 231.789 325.758 231 325.03C230.227 324.287 229.84 323.157 229.84 321.64C229.84 320.669 230.045 319.835 230.454 319.138C230.879 318.425 231.433 317.879 232.115 317.5C232.813 317.105 233.571 316.908 234.39 316.908C235.33 316.908 236.195 317.158 236.984 317.659C237.787 318.159 238.424 318.933 238.895 319.979C239.38 321.011 239.623 322.338 239.623 323.96C239.623 325.826 239.357 327.35 238.826 328.533C238.295 329.701 237.598 330.558 236.733 331.104C235.869 331.65 234.936 331.923 233.935 331.923Z" fill="white"/>
<path d="M84.8217 80.0305V34.9559H95.4447V80.0305H84.8217ZM90.1625 28.5586C88.4801 28.5586 87.0324 28.0011 85.8194 26.8859C84.6065 25.7512 84 24.3916 84 22.8069C84 21.2027 84.6065 19.843 85.8194 18.7279C87.0324 17.5932 88.4801 17.0259 90.1625 17.0259C91.8646 17.0259 93.3123 17.5932 94.5057 18.7279C95.7186 19.843 96.3251 21.2027 96.3251 22.8069C96.3251 24.3916 95.7186 25.7512 94.5057 26.8859C93.3123 28.0011 91.8646 28.5586 90.1625 28.5586Z" fill="white" fill-opacity="0.25"/>
<path d="M116.992 19.9311V80.0305H106.369V19.9311H116.992Z" fill="white" fill-opacity="0.25"/>
<path d="M127.915 80.0305V34.9559H138.069V42.6151H138.597C139.536 40.0327 141.091 38.0176 143.263 36.5699C145.435 35.1027 148.027 34.369 151.04 34.369C154.092 34.369 156.664 35.1124 158.757 36.5993C160.87 38.0665 162.357 40.0718 163.218 42.6151H163.687C164.685 40.1109 166.368 38.1154 168.735 36.6286C171.122 35.1222 173.949 34.369 177.216 34.369C181.363 34.369 184.748 35.6798 187.369 38.3013C189.991 40.9228 191.302 44.7475 191.302 49.7754V80.0305H180.649V51.4187C180.649 48.6211 179.906 46.5767 178.419 45.2855C176.932 43.9747 175.113 43.3194 172.961 43.3194C170.398 43.3194 168.393 44.1215 166.945 45.7257C165.517 47.3103 164.803 49.3743 164.803 51.9176V80.0305H154.385V50.9785C154.385 48.6505 153.681 46.7919 152.272 45.4029C150.883 44.0139 149.064 43.3194 146.814 43.3194C145.288 43.3194 143.899 43.7106 142.647 44.4932C141.395 45.2562 140.397 46.3419 139.654 47.7505C138.91 49.1395 138.538 50.7633 138.538 52.6219V80.0305H127.915Z" fill="white" fill-opacity="0.25"/>
<path d="M212.702 19.9311V80.0305H202.079V19.9311H212.702Z" fill="white" fill-opacity="0.25"/>
<path d="M236.596 80.9402C233.74 80.9402 231.167 80.4315 228.878 79.4142C226.609 78.3774 224.809 76.8514 223.479 74.8363C222.168 72.8213 221.513 70.3367 221.513 67.3826C221.513 64.8393 221.982 62.7363 222.921 61.0733C223.86 59.4104 225.142 58.0801 226.765 57.0824C228.389 56.0846 230.218 55.3314 232.253 54.8228C234.307 54.2946 236.43 53.9131 238.621 53.6783C241.262 53.4044 243.404 53.1599 245.048 52.9447C246.691 52.7099 247.884 52.3578 248.628 51.8882C249.391 51.3991 249.772 50.6459 249.772 49.6286V49.4526C249.772 47.2419 249.117 45.5301 247.806 44.3171C246.495 43.1042 244.607 42.4977 242.142 42.4977C239.54 42.4977 237.477 43.065 235.951 44.1997C234.444 45.3344 233.427 46.6745 232.899 48.2201L222.98 46.8115C223.762 44.0726 225.054 41.7836 226.853 39.9446C228.653 38.0861 230.854 36.6971 233.456 35.7776C236.058 34.8385 238.934 34.369 242.084 34.369C244.255 34.369 246.417 34.6233 248.569 35.132C250.721 35.6407 252.687 36.4819 254.467 37.6557C256.248 38.81 257.676 40.3848 258.752 42.3803C259.848 44.3758 260.395 46.8702 260.395 49.8634V80.0305H250.183V73.8386H249.831C249.185 75.0907 248.276 76.2645 247.102 77.3601C245.948 78.4361 244.49 79.3066 242.729 79.9718C240.988 80.6174 238.944 80.9402 236.596 80.9402ZM239.355 73.1343C241.487 73.1343 243.336 72.7137 244.901 71.8725C246.466 71.0117 247.669 69.877 248.51 68.4684C249.371 67.0598 249.802 65.5241 249.802 63.8612V58.5496C249.469 58.8235 248.902 59.0779 248.1 59.3126C247.317 59.5474 246.437 59.7528 245.458 59.9289C244.48 60.1049 243.512 60.2615 242.553 60.3984C241.595 60.5353 240.763 60.6527 240.059 60.7505C238.474 60.9657 237.056 61.3179 235.804 61.807C234.552 62.2961 233.564 62.9808 232.84 63.8612C232.116 64.722 231.754 65.8371 231.754 67.2065C231.754 69.1629 232.468 70.6399 233.896 71.6377C235.325 72.6354 237.144 73.1343 239.355 73.1343Z" fill="white" fill-opacity="0.25"/>
<path d="M271.077 80.0305V34.9559H281.377V42.4684H281.847C282.668 39.8664 284.077 37.8611 286.073 36.4525C288.088 35.0244 290.386 34.3103 292.969 34.3103C293.556 34.3103 294.211 34.3397 294.935 34.3984C295.678 34.4375 296.294 34.506 296.784 34.6038V44.3758C296.334 44.2193 295.62 44.0823 294.641 43.965C293.683 43.828 292.753 43.7596 291.854 43.7596C289.917 43.7596 288.176 44.1802 286.63 45.0214C285.104 45.8431 283.901 46.9875 283.021 48.4548C282.14 49.9221 281.7 51.6143 281.7 53.5316V80.0305H271.077Z" fill="white" fill-opacity="0.25"/>
<path d="M305.22 80.6761C303.44 80.6761 301.914 80.05 300.643 78.798C299.371 77.5459 298.745 76.0199 298.764 74.2201C298.745 72.4594 299.371 70.953 300.643 69.7009C301.914 68.4488 303.44 67.8228 305.22 67.8228C306.942 67.8228 308.439 68.4488 309.71 69.7009C311.001 70.953 311.657 72.4594 311.676 74.2201C311.657 75.4135 311.344 76.4992 310.737 77.4774C310.15 78.4556 309.368 79.2382 308.39 79.8251C307.431 80.3924 306.375 80.6761 305.22 80.6761Z" fill="white" fill-opacity="0.25"/>
<path d="M342.306 80.9108C337.806 80.9108 333.942 79.9229 330.714 77.947C327.506 75.971 325.031 73.2419 323.29 69.7596C321.568 66.2577 320.707 62.2276 320.707 57.6693C320.707 53.0914 321.588 49.0515 323.349 45.5496C325.109 42.0282 327.594 39.2893 330.802 37.3329C334.03 35.357 337.845 34.369 342.247 34.369C345.905 34.369 349.143 35.044 351.96 36.3939C354.797 37.7242 357.057 39.6121 358.739 42.0575C360.422 44.4834 361.38 47.3201 361.615 50.5677H351.461C351.051 48.3961 350.072 46.5865 348.527 45.1388C347.001 43.6715 344.957 42.9379 342.394 42.9379C340.222 42.9379 338.315 43.5248 336.671 44.6986C335.028 45.8529 333.747 47.5158 332.827 49.6873C331.927 51.8589 331.477 54.4608 331.477 57.4932C331.477 60.5647 331.927 63.2058 332.827 65.4165C333.727 67.6076 334.989 69.2998 336.613 70.4932C338.256 71.667 340.183 72.2539 342.394 72.2539C343.959 72.2539 345.358 71.9605 346.59 71.3736C347.842 70.7671 348.889 69.8965 349.73 68.7618C350.571 67.6272 351.148 66.2479 351.461 64.6241H361.615C361.361 67.813 360.422 70.6399 358.798 73.105C357.174 75.5504 354.963 77.4676 352.166 78.8567C349.368 80.2261 346.081 80.9108 342.306 80.9108Z" fill="white" fill-opacity="0.25"/>
<path d="M389.999 80.9108C385.597 80.9108 381.783 79.9424 378.555 78.0056C375.327 76.0689 372.822 73.3593 371.042 69.877C369.281 66.3946 368.401 62.3254 368.401 57.6693C368.401 53.0131 369.281 48.9341 371.042 45.4322C372.822 41.9304 375.327 39.211 378.555 37.2742C381.783 35.3374 385.597 34.369 389.999 34.369C394.401 34.369 398.216 35.3374 401.444 37.2742C404.672 39.211 407.166 41.9304 408.927 45.4322C410.707 48.9341 411.598 53.0131 411.598 57.6693C411.598 62.3254 410.707 66.3946 408.927 69.877C407.166 73.3593 404.672 76.0689 401.444 78.0056C398.216 79.9424 394.401 80.9108 389.999 80.9108ZM390.058 72.4007C392.445 72.4007 394.44 71.7453 396.044 70.4345C397.649 69.1042 398.842 67.3239 399.625 65.0937C400.427 62.8634 400.828 60.3788 400.828 57.6399C400.828 54.8815 400.427 52.3871 399.625 50.1569C398.842 47.907 397.649 46.117 396.044 44.7866C394.44 43.4563 392.445 42.7912 390.058 42.7912C387.613 42.7912 385.578 43.4563 383.954 44.7866C382.35 46.117 381.147 47.907 380.345 50.1569C379.562 52.3871 379.171 54.8815 379.171 57.6399C379.171 60.3788 379.562 62.8634 380.345 65.0937C381.147 67.3239 382.35 69.1042 383.954 70.4345C385.578 71.7453 387.613 72.4007 390.058 72.4007Z" fill="white" fill-opacity="0.25"/>
<path d="M420.614 80.0305V34.9559H430.767V42.6151H431.296C432.235 40.0327 433.79 38.0176 435.962 36.5699C438.133 35.1027 440.725 34.369 443.738 34.369C446.79 34.369 449.363 35.1124 451.456 36.5993C453.569 38.0665 455.056 40.0718 455.916 42.6151H456.386C457.384 40.1109 459.066 38.1154 461.433 36.6286C463.82 35.1222 466.647 34.369 469.914 34.369C474.062 34.369 477.446 35.6798 480.068 38.3013C482.689 40.9228 484 44.7475 484 49.7754V80.0305H473.348V51.4187C473.348 48.6211 472.604 46.5767 471.117 45.2855C469.631 43.9747 467.811 43.3194 465.659 43.3194C463.096 43.3194 461.091 44.1215 459.643 45.7257C458.215 47.3103 457.501 49.3743 457.501 51.9176V80.0305H447.083V50.9785C447.083 48.6505 446.379 46.7919 444.971 45.4029C443.582 44.0139 441.762 43.3194 439.512 43.3194C437.986 43.3194 436.597 43.7106 435.345 44.4932C434.093 45.2562 433.095 46.3419 432.352 47.7505C431.609 49.1395 431.237 50.7633 431.237 52.6219V80.0305H420.614Z" fill="white" fill-opacity="0.25"/>
<path fill-rule="evenodd" clip-rule="evenodd" d="M426 320C426 328.837 418.837 336 410 336C409.335 336 408.68 335.959 408.036 335.881V318.545H401.491V333.552C396.991 330.721 394 325.71 394 320C394 311.163 401.163 304 410 304C418.837 304 426 311.163 426 320ZM404.691 316.436C406.8 316.436 408.509 314.727 408.509 312.618C408.509 310.509 406.8 308.8 404.691 308.8C402.582 308.8 400.873 310.509 400.873 312.618C400.873 314.727 402.582 316.436 404.691 316.436Z" fill="white"/>
<path d="M435.912 329V315.909H438.461V329H435.912ZM437.199 313.889C436.756 313.889 436.375 313.741 436.057 313.446C435.745 313.145 435.588 312.787 435.588 312.372C435.588 311.952 435.745 311.594 436.057 311.298C436.375 310.997 436.756 310.847 437.199 310.847C437.642 310.847 438.02 310.997 438.333 311.298C438.651 311.594 438.81 311.952 438.81 312.372C438.81 312.787 438.651 313.145 438.333 313.446C438.02 313.741 437.642 313.889 437.199 313.889ZM444.437 311.545V329H441.889V311.545H444.437ZM447.865 329V315.909H450.311V318.04H450.473C450.746 317.318 451.192 316.756 451.811 316.352C452.431 315.943 453.172 315.739 454.036 315.739C454.911 315.739 455.644 315.943 456.235 316.352C456.831 316.761 457.272 317.324 457.556 318.04H457.692C458.005 317.341 458.502 316.784 459.184 316.369C459.865 315.949 460.678 315.739 461.621 315.739C462.809 315.739 463.777 316.111 464.527 316.855C465.283 317.599 465.661 318.722 465.661 320.222V329H463.113V320.46C463.113 319.574 462.871 318.932 462.388 318.534C461.905 318.136 461.328 317.938 460.658 317.938C459.828 317.938 459.184 318.193 458.723 318.705C458.263 319.21 458.033 319.861 458.033 320.656V329H455.493V320.298C455.493 319.588 455.272 319.017 454.828 318.585C454.385 318.153 453.809 317.938 453.098 317.938C452.615 317.938 452.169 318.065 451.76 318.321C451.357 318.571 451.03 318.92 450.78 319.369C450.536 319.818 450.414 320.338 450.414 320.929V329H447.865ZM471.625 311.545V329H469.076V311.545H471.625ZM478.863 329.29C478.033 329.29 477.283 329.136 476.613 328.83C475.942 328.517 475.411 328.065 475.019 327.474C474.632 326.884 474.439 326.159 474.439 325.301C474.439 324.562 474.581 323.955 474.865 323.477C475.15 323 475.533 322.622 476.016 322.344C476.499 322.065 477.039 321.855 477.635 321.713C478.232 321.571 478.84 321.463 479.459 321.389C480.243 321.298 480.88 321.224 481.368 321.168C481.857 321.105 482.212 321.006 482.434 320.869C482.655 320.733 482.766 320.511 482.766 320.205V320.145C482.766 319.401 482.556 318.824 482.135 318.415C481.721 318.006 481.101 317.801 480.277 317.801C479.419 317.801 478.743 317.991 478.249 318.372C477.76 318.747 477.422 319.165 477.235 319.625L474.84 319.08C475.124 318.284 475.539 317.642 476.084 317.153C476.635 316.659 477.269 316.301 477.985 316.08C478.701 315.852 479.453 315.739 480.243 315.739C480.766 315.739 481.32 315.801 481.905 315.926C482.496 316.045 483.047 316.267 483.559 316.591C484.076 316.915 484.499 317.378 484.828 317.98C485.158 318.577 485.323 319.352 485.323 320.307V329H482.834V327.21H482.732C482.567 327.54 482.32 327.864 481.99 328.182C481.661 328.5 481.238 328.764 480.721 328.974C480.203 329.185 479.584 329.29 478.863 329.29ZM479.417 327.244C480.121 327.244 480.723 327.105 481.223 326.827C481.729 326.548 482.113 326.185 482.374 325.736C482.641 325.281 482.775 324.795 482.775 324.278V322.591C482.684 322.682 482.507 322.767 482.246 322.847C481.99 322.92 481.698 322.986 481.368 323.043C481.039 323.094 480.718 323.142 480.405 323.188C480.093 323.227 479.831 323.261 479.621 323.29C479.127 323.352 478.675 323.457 478.266 323.605C477.863 323.753 477.539 323.966 477.294 324.244C477.056 324.517 476.936 324.881 476.936 325.335C476.936 325.966 477.169 326.443 477.635 326.767C478.101 327.085 478.695 327.244 479.417 327.244ZM488.717 329V315.909H491.18V317.989H491.316C491.555 317.284 491.975 316.73 492.578 316.327C493.186 315.918 493.873 315.713 494.64 315.713C494.799 315.713 494.987 315.719 495.203 315.73C495.424 315.741 495.598 315.756 495.723 315.773V318.21C495.62 318.182 495.439 318.151 495.177 318.116C494.916 318.077 494.654 318.057 494.393 318.057C493.791 318.057 493.254 318.185 492.782 318.44C492.316 318.69 491.947 319.04 491.674 319.489C491.402 319.932 491.265 320.437 491.265 321.006V329H488.717ZM498.107 329.162C497.641 329.162 497.24 328.997 496.905 328.668C496.57 328.332 496.402 327.929 496.402 327.457C496.402 326.991 496.57 326.594 496.905 326.264C497.24 325.929 497.641 325.761 498.107 325.761C498.573 325.761 498.973 325.929 499.309 326.264C499.644 326.594 499.811 326.991 499.811 327.457C499.811 327.77 499.732 328.057 499.573 328.318C499.419 328.574 499.215 328.778 498.959 328.932C498.703 329.085 498.419 329.162 498.107 329.162ZM508.739 329.264C507.472 329.264 506.381 328.977 505.466 328.403C504.557 327.824 503.858 327.026 503.37 326.009C502.881 324.991 502.637 323.827 502.637 322.514C502.637 321.185 502.887 320.011 503.387 318.994C503.887 317.972 504.591 317.173 505.5 316.599C506.409 316.026 507.48 315.739 508.713 315.739C509.708 315.739 510.594 315.923 511.373 316.293C512.151 316.656 512.779 317.168 513.256 317.827C513.739 318.486 514.026 319.256 514.117 320.136H511.637C511.5 319.523 511.188 318.994 510.699 318.551C510.216 318.108 509.569 317.886 508.756 317.886C508.046 317.886 507.424 318.074 506.89 318.449C506.361 318.818 505.949 319.347 505.654 320.034C505.358 320.716 505.211 321.523 505.211 322.455C505.211 323.409 505.355 324.233 505.645 324.926C505.935 325.619 506.344 326.156 506.873 326.537C507.407 326.918 508.034 327.108 508.756 327.108C509.239 327.108 509.676 327.02 510.069 326.844C510.466 326.662 510.799 326.403 511.066 326.068C511.338 325.733 511.529 325.33 511.637 324.858H514.117C514.026 325.705 513.75 326.46 513.29 327.125C512.83 327.79 512.213 328.312 511.441 328.693C510.674 329.074 509.773 329.264 508.739 329.264ZM522.356 329.264C521.129 329.264 520.058 328.983 519.143 328.42C518.228 327.858 517.518 327.071 517.012 326.06C516.507 325.048 516.254 323.866 516.254 322.514C516.254 321.156 516.507 319.969 517.012 318.952C517.518 317.935 518.228 317.145 519.143 316.582C520.058 316.02 521.129 315.739 522.356 315.739C523.583 315.739 524.654 316.02 525.569 316.582C526.484 317.145 527.194 317.935 527.7 318.952C528.206 319.969 528.458 321.156 528.458 322.514C528.458 323.866 528.206 325.048 527.7 326.06C527.194 327.071 526.484 327.858 525.569 328.42C524.654 328.983 523.583 329.264 522.356 329.264ZM522.365 327.125C523.16 327.125 523.819 326.915 524.342 326.494C524.865 326.074 525.251 325.514 525.501 324.815C525.757 324.116 525.885 323.347 525.885 322.506C525.885 321.67 525.757 320.903 525.501 320.205C525.251 319.5 524.865 318.935 524.342 318.509C523.819 318.082 523.16 317.869 522.365 317.869C521.564 317.869 520.899 318.082 520.37 318.509C519.848 318.935 519.458 319.5 519.203 320.205C518.953 320.903 518.828 321.67 518.828 322.506C518.828 323.347 518.953 324.116 519.203 324.815C519.458 325.514 519.848 326.074 520.37 326.494C520.899 326.915 521.564 327.125 522.365 327.125ZM531.303 329V315.909H533.749V318.04H533.911C534.184 317.318 534.63 316.756 535.249 316.352C535.868 315.943 536.61 315.739 537.473 315.739C538.348 315.739 539.081 315.943 539.672 316.352C540.269 316.761 540.709 317.324 540.993 318.04H541.13C541.442 317.341 541.939 316.784 542.621 316.369C543.303 315.949 544.115 315.739 545.059 315.739C546.246 315.739 547.215 316.111 547.965 316.855C548.721 317.599 549.098 318.722 549.098 320.222V329H546.55V320.46C546.55 319.574 546.309 318.932 545.826 318.534C545.343 318.136 544.766 317.938 544.096 317.938C543.266 317.938 542.621 318.193 542.161 318.705C541.701 319.21 541.471 319.861 541.471 320.656V329H538.931V320.298C538.931 319.588 538.709 319.017 538.266 318.585C537.823 318.153 537.246 317.938 536.536 317.938C536.053 317.938 535.607 318.065 535.198 318.321C534.794 318.571 534.468 318.92 534.218 319.369C533.973 319.818 533.851 320.338 533.851 320.929V329H531.303Z" fill="white"/>
</g>
<defs>
<clipPath id="clip0_10_2594">
<rect width="568" height="360" rx="24" fill="white"/>
</clipPath>
</defs>
</svg>
