<svg width="65" height="64" viewBox="0 0 65 64" fill="none" xmlns="http://www.w3.org/2000/svg">
<rect x="0.833008" y="0.5" width="63" height="63" rx="31.5" fill="white"/>
<rect x="0.833008" y="0.5" width="63" height="63" rx="31.5" stroke="#2095D4"/>
<path d="M24.458 30.3125C26.322 30.3125 27.833 28.8015 27.833 26.9375C27.833 25.0735 26.322 23.5625 24.458 23.5625C22.594 23.5625 21.083 25.0735 21.083 26.9375C21.083 28.8015 22.594 30.3125 24.458 30.3125Z" fill="#6096BA"/>
<path d="M33.1036 33.0125L35.2355 32.7087C35.4211 32.6806 35.5899 32.6131 35.7361 32.5175C35.9949 35.0712 38.1493 37.0625 40.7705 37.0625C43.5661 37.0625 45.833 34.7956 45.833 32C45.833 29.2044 43.5661 26.9375 40.7705 26.9375C38.4418 26.9375 36.4843 28.5069 35.8936 30.6444C35.6743 30.4363 35.3874 30.3125 35.0668 30.3125H32.963C33.188 29.2438 33.6324 28.2481 34.2455 27.3875C34.7124 27.3144 35.1624 27.1062 35.5168 26.7462C35.8768 26.3919 36.0849 25.9419 36.158 25.475C37.1086 24.8 38.2224 24.3275 39.4205 24.125C39.803 24.4062 40.2643 24.575 40.7705 24.575C41.2768 24.575 41.738 24.4062 42.1205 24.125C43.3186 24.3275 44.4324 24.8 45.383 25.475C45.4561 25.9419 45.6643 26.3919 46.0243 26.7462C46.3786 27.1062 46.8286 27.3144 47.2955 27.3875C47.9705 28.3381 48.443 29.4519 48.6455 30.65C48.3643 31.0325 48.1955 31.4938 48.1955 32C48.1955 32.5063 48.3643 32.9675 48.6455 33.35C48.443 34.5481 47.9705 35.6619 47.2955 36.6125C46.8286 36.6856 46.3786 36.8938 46.0243 37.2537C45.6643 37.6081 45.4561 38.0581 45.383 38.525C44.4324 39.2 43.3186 39.6725 42.1205 39.875C41.738 39.5938 41.2768 39.425 40.7705 39.425C40.2643 39.425 39.803 39.5938 39.4205 39.875C38.2224 39.6725 37.1086 39.2 36.158 38.525C36.0849 38.0581 35.8768 37.6081 35.5168 37.2537C35.1624 36.8938 34.7124 36.6856 34.2455 36.6125C33.5705 35.6619 33.098 34.5481 32.8955 33.35C32.9743 33.2431 33.0418 33.1306 33.1036 33.0125Z" fill="#274C77"/>
<path d="M35.7363 32.5175C35.9951 35.0712 38.1495 37.0625 40.7707 37.0625C43.5663 37.0625 45.8332 34.7956 45.8332 32C45.8332 29.2044 43.5663 26.9375 40.7707 26.9375C38.442 26.9375 36.4845 28.5069 35.8938 30.6444L35.9163 30.6669C36.1357 30.8862 36.2707 31.1844 36.2707 31.5162C36.2707 31.9325 36.0626 32.3037 35.7363 32.5175Z" fill="#F5DD90"/>
<path d="M35.0671 30.3125H22.1915C20.7908 30.3125 19.469 30.9594 18.6196 32.0731C17.489 33.5525 16.2402 36.1344 16.049 40.3981C16.0208 41.0281 16.5271 41.5569 17.1627 41.5569H17.1908C17.7927 41.5569 18.2708 41.1013 18.3327 40.5106C18.6815 37.1694 20.5265 33.6819 20.5265 33.6819V41.5569H28.4015V34.655C28.4015 34.0925 28.8121 33.62 29.369 33.5413L35.2415 32.7031C35.8377 32.6188 36.2765 32.1125 36.2765 31.5106C36.2765 30.8469 35.7365 30.3069 35.0727 30.3069L35.0671 30.3125Z" fill="#6096BA"/>
<path d="M40.7705 21.875C42.6345 21.875 44.1455 20.364 44.1455 18.5C44.1455 16.636 42.6345 15.125 40.7705 15.125C38.9065 15.125 37.3955 16.636 37.3955 18.5C37.3955 20.364 38.9065 21.875 40.7705 21.875Z" fill="#A3CEF1"/>
<path d="M40.7705 48.875C42.6345 48.875 44.1455 47.364 44.1455 45.5C44.1455 43.636 42.6345 42.125 40.7705 42.125C38.9065 42.125 37.3955 43.636 37.3955 45.5C37.3955 47.364 38.9065 48.875 40.7705 48.875Z" fill="#A3CEF1"/>
</svg>
