<svg width="65" height="64" viewBox="0 0 65 64" fill="none" xmlns="http://www.w3.org/2000/svg">
<rect x="1.16699" y="0.5" width="63" height="63" rx="31.5" fill="white"/>
<rect x="1.16699" y="0.5" width="63" height="63" rx="31.5" stroke="#2095D4"/>
<path d="M40.542 24.125H39.417V25.8125H40.542V24.125Z" fill="#6096BA"/>
<path d="M40.542 20.1875H39.417V23H40.542V20.1875Z" fill="#6096BA"/>
<path d="M39.9795 24.6875C40.6008 24.6875 41.1045 24.1838 41.1045 23.5625C41.1045 22.9412 40.6008 22.4375 39.9795 22.4375C39.3582 22.4375 38.8545 22.9412 38.8545 23.5625C38.8545 24.1838 39.3582 24.6875 39.9795 24.6875Z" fill="#F5DD90"/>
<path d="M28.167 21.2394V22.4375C28.167 23.6806 29.1739 24.6875 30.417 24.6875H34.917C36.1601 24.6875 37.167 23.6806 37.167 22.4375V21.2394L32.667 22.4375L28.167 21.2394Z" fill="#6096BA"/>
<path d="M32.667 22.4375L24.2295 20.1875L32.667 15.6875L41.1045 20.1875L32.667 22.4375Z" fill="#274C77"/>
<path d="M25.917 47.1875V32.5625L32.667 25.8125L39.417 32.5625V47.1875" fill="#6096BA"/>
<path d="M32.667 36.5C34.2203 36.5 35.4795 35.2408 35.4795 33.6875C35.4795 32.1342 34.2203 30.875 32.667 30.875C31.1137 30.875 29.8545 32.1342 29.8545 33.6875C29.8545 35.2408 31.1137 36.5 32.667 36.5Z" fill="#FFBC0A"/>
<path d="M21.417 25.25H15.792L18.042 26.9375L15.792 28.625H21.417" fill="#F5DD90"/>
<path d="M25.917 35.9375H19.7295V47.1875H25.917V35.9375Z" fill="#274C77"/>
<path d="M45.6045 35.9375H39.417V47.1875H45.6045V35.9375Z" fill="#274C77"/>
<path d="M30.417 47.1875V42.6875H34.917V47.1875" fill="#F5DD90"/>
<path d="M39.417 32.5625H46.7295V35.9375H39.417" fill="#8B8C89"/>
<path d="M25.917 35.9375H18.6045V32.5625H25.917" fill="#8B8C89"/>
<path d="M49.542 47.1875H15.792V48.3125H49.542V47.1875Z" fill="#8B8C89"/>
<path d="M33.2295 42.6875H32.1045V47.1875H33.2295V42.6875Z" fill="#FFBC0A"/>
<path d="M32.667 36.5C31.1145 36.5 29.8545 35.24 29.8545 33.6875C29.8545 32.135 31.1145 30.875 32.667 30.875" fill="#F5DD90"/>
<path d="M22.542 24.6875H21.417V32.5625H22.542V24.6875Z" fill="#6096BA"/>
<path d="M43.917 25.25H49.542L47.292 26.9375L49.542 28.625H43.917" fill="#F5DD90"/>
<path d="M42.792 32.5625H43.917V24.6875H42.792V32.5625Z" fill="#6096BA"/>
</svg>
