<svg width="24" height="24" viewBox="0 0 24 24" fill="none" xmlns="http://www.w3.org/2000/svg">
<path d="M11.106 14.6824H12.8944V12.8944H18.2599C19.7546 12.8951 20.0464 12.9169 20.0483 14.6827H21.8366V12.8948C21.8351 11.7094 21.2183 11.1071 20.0483 11.106H12.8944V9.31725H11.106V11.106L4.28212 11.229C3.11137 11.2294 2.16375 12.1875 2.16375 13.3725V14.6824H3.95212C3.95212 13.3166 3.86062 12.8951 5.7405 12.8944H11.106V14.6824ZM8.58 7.52888H15.4185C15.9994 7.52888 16.4711 7.0065 16.4711 6.36113V3.33113C16.4711 2.6865 15.9998 2.16338 15.4185 2.16338H8.58C7.99912 2.16338 7.52887 2.6865 7.52887 3.33113V6.36113C7.52887 7.0065 7.99912 7.52888 8.58 7.52888ZM4.941 16.4711H1.17413C0.733125 16.4711 0.375 16.9744 0.375 17.5965V20.7116C0.375 21.333 0.733125 21.8366 1.17413 21.8366H4.941C5.382 21.8366 5.74013 21.333 5.74013 20.7116V17.5965C5.7405 16.9744 5.382 16.4711 4.941 16.4711ZM13.884 16.4711H10.1164C9.675 16.4711 9.31725 16.9744 9.31725 17.5965V20.7116C9.31725 21.333 9.67462 21.8366 10.1164 21.8366H13.8844C14.3254 21.8366 14.6827 21.333 14.6827 20.7116V17.5965C14.6827 16.9744 14.3254 16.4711 13.884 16.4711ZM22.8259 16.4711H19.0583C18.6172 16.4711 18.2599 16.9744 18.2599 17.5965V20.7116C18.2599 21.333 18.6176 21.8366 19.0583 21.8366H22.8259C23.2676 21.8366 23.625 21.333 23.625 20.7116V17.5965C23.625 16.9744 23.2676 16.4711 22.8259 16.4711Z" fill="#1E1E1E" fill-opacity="0.7"/>
</svg>
