<svg width="24" height="25" viewBox="0 0 24 25" fill="none" xmlns="http://www.w3.org/2000/svg">
<g clip-path="url(#clip0_1451_222)">
<path d="M7.38769 15.5749C7.728 15.4703 7.85836 15.261 7.88456 15.104C7.85836 14.8945 7.73723 14.8097 7.69772 14.4288C7.6515 13.9855 8.02162 12.925 8.13169 12.7357C8.11669 12.6995 8.10122 12.6676 8.08645 12.6304C7.57073 12.3032 7.04541 11.7116 6.804 10.6422C6.67491 10.0704 6.78169 9.48617 7.09092 8.98808C7.09092 8.98808 6.74109 6.54725 7.23375 4.95312C6.77353 4.73159 6.27234 4.76891 5.58544 4.83753C5.05828 4.89031 4.98347 5.00234 4.57856 4.94361C4.11455 4.87616 3.738 4.7353 3.62475 4.67858C3.5595 4.64605 2.94745 5.18905 2.77706 5.63248C2.23655 7.03719 2.38167 8.00023 2.51925 8.72891C2.51466 8.80353 2.50875 8.87788 2.50875 8.9533L2.63438 9.48702C2.63484 9.49264 2.63437 9.49789 2.63456 9.50323C2.36072 9.74886 2.19567 10.1039 2.28281 10.4899C2.46225 11.2837 2.84859 11.6056 3.22903 11.7451C3.48136 12.4569 3.72619 12.9064 4.01189 13.2086C4.08413 13.538 4.14792 13.9853 4.1017 14.4289C3.90886 16.2866 0 15.308 0 18.5694C0 18.9965 1.21645 19.6934 4.16334 19.8941C4.15472 19.8312 4.14881 19.7677 4.14881 19.7029C4.14881 16.7782 6.05006 15.9865 7.38769 15.5749Z" fill="#1E1E1E" fill-opacity="0.7" stroke="#1E1E1E" stroke-opacity="0.7" stroke-width="0.125"/>
<path d="M19.898 14.4288C19.8517 13.9855 19.9154 13.5384 19.9876 13.2095C20.2738 12.9068 20.5186 12.4571 20.771 11.7449C21.1513 11.6053 21.5374 11.2833 21.7167 10.4899C21.7996 10.1244 21.6561 9.78645 21.4078 9.54298C21.5877 8.93998 22.2951 6.14605 20.1704 5.57942C19.4638 4.69634 18.8458 4.73159 17.7858 4.83753C17.2586 4.89031 17.1837 5.00234 16.779 4.94361C16.6904 4.93072 16.6064 4.91464 16.5254 4.89748C16.6032 5.00342 16.6772 5.11292 16.7428 5.22992C17.4521 6.49709 17.2648 8.10195 17.0419 9.0822C17.3077 9.5608 17.3946 10.1108 17.2746 10.6424C17.0331 11.7112 16.5081 12.3027 15.9926 12.6299C15.9668 12.6948 15.8908 12.8275 15.9954 12.9583C16.091 13.1133 16.1081 13.0985 16.2123 13.2086C16.2845 13.538 16.3482 13.9853 16.3019 14.4288C16.2638 14.7968 15.6291 15.104 15.8081 15.2527C15.9842 15.3268 16.1884 15.4043 16.4175 15.4884C17.7312 15.9707 19.9297 16.7782 19.9297 19.7029C19.9297 19.7658 19.9243 19.8275 19.9161 19.8885C22.8053 19.681 23.9995 18.9927 23.9995 18.5694C23.9995 15.308 20.0908 16.2866 19.898 14.4288Z" fill="#1E1E1E" fill-opacity="0.7" stroke="#1E1E1E" stroke-opacity="0.7" stroke-width="0.125"/>
<path d="M14.1096 14.9355C14.0564 14.4252 14.1299 13.9105 14.2128 13.5313C14.5422 13.1833 14.8244 12.6652 15.1149 11.8453C15.5527 11.6847 15.9973 11.314 16.2038 10.4003C16.2988 9.97958 16.1337 9.59052 15.8482 9.3102C16.055 8.61598 16.8694 5.39909 14.4233 4.74678C13.6098 3.72997 12.898 3.77061 11.6778 3.89262C11.0707 3.95328 10.9845 4.08237 10.5185 4.01464C9.98416 3.93697 9.55076 3.77478 9.42035 3.70958C9.34526 3.67194 8.64049 4.2973 8.44413 4.80776C7.8221 6.42495 7.98921 7.53397 8.14741 8.37289C8.14221 8.45881 8.13504 8.54436 8.13504 8.63122L8.27998 9.24575C8.28045 9.25208 8.27998 9.25812 8.28016 9.26445C7.96488 9.54711 7.77499 9.95595 7.87535 10.4003C8.0817 11.3143 8.52663 11.6849 8.96463 11.8454C9.25521 12.665 9.53684 13.1829 9.86609 13.5308C9.9492 13.9098 10.0226 14.425 9.96945 14.9355C9.74735 17.0742 5.24707 15.9477 5.24707 19.703C5.24707 20.2821 7.1877 21.2921 12.0395 21.2921C16.8914 21.2921 18.832 20.2821 18.832 19.703C18.832 15.9476 14.3317 17.0742 14.1096 14.9355ZM11.2519 20.6705L10.0202 15.6676L11.5354 16.2982L11.4539 17.0304L11.6946 17.0251L11.2519 20.6705ZM12.9474 20.6705L12.5045 17.0251L12.7452 17.0304L12.6638 16.2982L14.179 15.6676L12.9474 20.6705Z" fill="#1E1E1E" fill-opacity="0.7" stroke="#1E1E1E" stroke-opacity="0.7" stroke-width="0.125"/>
</g>
<defs>
<clipPath id="clip0_1451_222">
<rect width="24" height="24" fill="white" transform="translate(0 0.5)"/>
</clipPath>
</defs>
</svg>
